<svg width="116" height="122" viewBox="0 0 116 122" fill="none" xmlns="http://www.w3.org/2000/svg">
<g filter="url(#filter0_bd_23_663)">
<path d="M53 90.1132C56.094 91.8996 59.906 91.8996 63 90.1132L80.7128 79.8868C83.8068 78.1004 85.7128 74.7992 85.7128 71.2265V50.7735C85.7128 47.2008 83.8068 43.8996 80.7128 42.1133L63 31.8867C59.906 30.1004 56.094 30.1004 53 31.8867L35.2872 42.1133C32.1932 43.8996 30.2872 47.2008 30.2872 50.7735V71.2265C30.2872 74.7992 32.1932 78.1004 35.2872 79.8868L53 90.1132Z" fill="#9932CC"/>
<path d="M53.25 89.6802C56.1893 91.3772 59.8107 91.3772 62.75 89.6802L80.4628 79.4537C83.4021 77.7567 85.2128 74.6205 85.2128 71.2265V50.7735C85.2128 47.3795 83.4021 44.2433 80.4628 42.5463L62.75 32.3198C59.8107 30.6227 56.1893 30.6227 53.25 32.3198L35.5372 42.5463C32.5979 44.2433 30.7872 47.3795 30.7872 50.7735V71.2265C30.7872 74.6205 32.5979 77.7567 35.5372 79.4537L53.25 89.6802Z" stroke="url(#paint0_linear_23_663)" style="mix-blend-mode:overlay"/>
</g>
<path d="M50.215 55.16C48.354 55.147 46.584 55.953 46 57.19C49.68 56.192 51.747 56.858 54.244 59.828C55.234 61.012 56.139 62.278 57.236 63.338C58.334 64.418 59.539 65.499 60.873 66.164C63.843 67.639 67.675 66.579 68.923 64.17C68.536 64.315 68.171 64.44 67.805 64.586C66.112 65.767 63.885 65.79 62.057 64.211C60.184 62.591 58.57 60.679 56.891 58.851C55.276 57.107 53.555 55.55 51.016 55.217C50.7505 55.1808 50.4829 55.1618 50.215 55.16ZM65.854 56.879C64.897 56.866 63.854 57.18 62.811 57.855C61.777 58.541 60.851 59.393 59.84 60.203C59.237 59.808 58.636 59.393 58.033 58.998C57.99 59.06 57.923 59.143 57.881 59.205C58.031 59.392 58.205 59.559 58.355 59.745C59.216 60.701 60.098 61.676 61.045 62.611C61.992 61.759 62.768 61.013 63.607 60.306C66.018 58.271 68.235 58.581 70 61.344C69.645 58.516 67.958 56.907 65.854 56.879ZM50.393 61.615C51.684 67.037 55.126 66.517 57.473 65.353C58.097 65.644 59.001 65.956 59.582 66.226C59.625 66.164 59.689 66.101 59.732 66.039C58.699 65.374 57.754 64.501 56.892 63.669C56.677 63.462 56.482 63.254 56.289 63.047C52.953 65.913 50.393 61.615 50.393 61.615Z" fill="url(#paint1_linear_23_663)" style="mix-blend-mode:overlay"/>
<defs>
<filter id="filter0_bd_23_663" x="0.287186" y="0.546997" width="115.426" height="120.906" filterUnits="userSpaceOnUse" color-interpolation-filters="sRGB">
<feFlood flood-opacity="0" result="BackgroundImageFix"/>
<feGaussianBlur in="BackgroundImageFix" stdDeviation="2"/>
<feComposite in2="SourceAlpha" operator="in" result="effect1_backgroundBlur_23_663"/>
<feColorMatrix in="SourceAlpha" type="matrix" values="0 0 0 0 0 0 0 0 0 0 0 0 0 0 0 0 0 0 127 0" result="hardAlpha"/>
<feOffset/>
<feGaussianBlur stdDeviation="15"/>
<feComposite in2="hardAlpha" operator="out"/>
<feColorMatrix type="matrix" values="0 0 0 0 0.462745 0 0 0 0 0.239216 0 0 0 0 0.690196 0 0 0 1 0"/>
<feBlend mode="normal" in2="effect1_backgroundBlur_23_663" result="effect2_dropShadow_23_663"/>
<feBlend mode="normal" in="SourceGraphic" in2="effect2_dropShadow_23_663" result="shape"/>
</filter>
<linearGradient id="paint0_linear_23_663" x1="50.2" y1="48.6086" x2="78.7955" y2="89.1105" gradientUnits="userSpaceOnUse">
<stop stop-color="white"/>
<stop offset="1" stop-color="white" stop-opacity="0.5"/>
</linearGradient>
<linearGradient id="paint1_linear_23_663" x1="58" y1="55.1599" x2="58" y2="66.8404" gradientUnits="userSpaceOnUse">
<stop stop-color="white" stop-opacity="0.8"/>
<stop offset="1" stop-color="white" stop-opacity="0.3"/>
</linearGradient>
</defs>
</svg>
