<svg width="116" height="122" viewBox="0 0 116 122" fill="none" xmlns="http://www.w3.org/2000/svg">
<g filter="url(#filter0_bd_23_594)">
<path d="M53 90.1132C56.094 91.8996 59.906 91.8996 63 90.1132L80.7128 79.8868C83.8068 78.1004 85.7128 74.7992 85.7128 71.2265V50.7735C85.7128 47.2008 83.8068 43.8996 80.7128 42.1133L63 31.8867C59.906 30.1004 56.094 30.1004 53 31.8867L35.2872 42.1133C32.1932 43.8996 30.2872 47.2008 30.2872 50.7735V71.2265C30.2872 74.7992 32.1932 78.1004 35.2872 79.8868L53 90.1132Z" fill="#9932CC"/>
<path d="M53.25 89.6802C56.1893 91.3772 59.8107 91.3772 62.75 89.6802L80.4628 79.4537C83.4021 77.7567 85.2128 74.6205 85.2128 71.2265V50.7735C85.2128 47.3795 83.4021 44.2433 80.4628 42.5463L62.75 32.3198C59.8107 30.6227 56.1893 30.6227 53.25 32.3198L35.5372 42.5463C32.5979 44.2433 30.7872 47.3795 30.7872 50.7735V71.2265C30.7872 74.6205 32.5979 77.7567 35.5372 79.4537L53.25 89.6802Z" stroke="url(#paint0_linear_23_594)" style="mix-blend-mode:overlay"/>
</g>
<path d="M58.17 50.272C57.9783 50.2757 57.7957 50.3544 57.6614 50.4913C57.5272 50.6282 57.452 50.8123 57.452 51.004V64.918C57.452 65.1122 57.5291 65.2984 57.6664 65.4356C57.8037 65.5729 57.9899 65.65 58.184 65.65C58.3781 65.65 58.5643 65.5729 58.7016 65.4356C58.8389 65.2984 58.916 65.1122 58.916 64.918V51.004C58.916 50.9068 58.8967 50.8105 58.8591 50.7209C58.8215 50.6312 58.7664 50.5499 58.697 50.4818C58.6277 50.4136 58.5454 50.36 58.4551 50.324C58.3648 50.288 58.2672 50.2703 58.17 50.272ZM69.246 54.44C69.1505 54.4428 69.0564 54.4642 68.969 54.503L62.687 57.307C62.5585 57.3651 62.4494 57.459 62.3729 57.5775C62.2965 57.696 62.2558 57.834 62.2558 57.975C62.2558 58.1161 62.2965 58.2541 62.3729 58.3726C62.4494 58.4911 62.5585 58.585 62.687 58.643L68.969 61.457C69.0634 61.4991 69.1656 61.5209 69.269 61.521C69.4364 61.5205 69.5985 61.4626 69.7284 61.3571C69.8582 61.2515 69.948 61.1047 69.9827 60.9409C70.0175 60.7772 69.9951 60.6066 69.9192 60.4574C69.8434 60.3082 69.7187 60.1895 69.566 60.121L64.78 57.976L69.566 55.839C69.7427 55.7595 69.8808 55.6133 69.9501 55.4323C70.0194 55.2513 70.0143 55.0503 69.936 54.873C69.8766 54.7408 69.7794 54.6291 69.6566 54.552C69.5338 54.475 69.3909 54.436 69.246 54.44ZM46.746 59.472C46.6332 59.47 46.5214 59.494 46.4194 59.5423C46.3174 59.5907 46.228 59.6619 46.1581 59.7505C46.0882 59.8391 46.0397 59.9426 46.0164 60.053C45.9932 60.1635 45.9958 60.2778 46.024 60.387C47.76 67.064 53.799 71.728 60.707 71.728C60.9011 71.728 61.0873 71.6509 61.2246 71.5136C61.3619 71.3764 61.439 71.1902 61.439 70.996C61.439 70.8019 61.3619 70.6157 61.2246 70.4784C61.0873 70.3411 60.9011 70.264 60.707 70.264C57.6738 70.2652 54.7259 69.2602 52.325 67.4065C49.9242 65.5527 48.2062 62.9549 47.44 60.02C47.3997 59.8657 47.3101 59.7287 47.1849 59.63C47.0596 59.5313 46.9055 59.4751 46.746 59.472Z" fill="url(#paint1_linear_23_594)" style="mix-blend-mode:overlay"/>
<defs>
<filter id="filter0_bd_23_594" x="0.287201" y="0.546997" width="115.426" height="120.906" filterUnits="userSpaceOnUse" color-interpolation-filters="sRGB">
<feFlood flood-opacity="0" result="BackgroundImageFix"/>
<feGaussianBlur in="BackgroundImageFix" stdDeviation="2"/>
<feComposite in2="SourceAlpha" operator="in" result="effect1_backgroundBlur_23_594"/>
<feColorMatrix in="SourceAlpha" type="matrix" values="0 0 0 0 0 0 0 0 0 0 0 0 0 0 0 0 0 0 127 0" result="hardAlpha"/>
<feOffset/>
<feGaussianBlur stdDeviation="15"/>
<feComposite in2="hardAlpha" operator="out"/>
<feColorMatrix type="matrix" values="0 0 0 0 0.462745 0 0 0 0 0.239216 0 0 0 0 0.690196 0 0 0 1 0"/>
<feBlend mode="normal" in2="effect1_backgroundBlur_23_594" result="effect2_dropShadow_23_594"/>
<feBlend mode="normal" in="SourceGraphic" in2="effect2_dropShadow_23_594" result="shape"/>
</filter>
<linearGradient id="paint0_linear_23_594" x1="50.2" y1="48.6086" x2="78.7955" y2="89.1105" gradientUnits="userSpaceOnUse">
<stop stop-color="white"/>
<stop offset="1" stop-color="white" stop-opacity="0.5"/>
</linearGradient>
<linearGradient id="paint1_linear_23_594" x1="57.9997" y1="50.2719" x2="57.9997" y2="71.728" gradientUnits="userSpaceOnUse">
<stop stop-color="white" stop-opacity="0.8"/>
<stop offset="1" stop-color="white" stop-opacity="0.3"/>
</linearGradient>
</defs>
</svg>
