<svg width="568" height="110" viewBox="0 0 568 110" fill="none" xmlns="http://www.w3.org/2000/svg">
<path d="M4.484 47V13.4H20.9C25.124 13.4 28.292 14.2 30.404 15.8C32.548 17.4 33.62 19.512 33.62 22.136C33.62 23.896 33.188 25.432 32.324 26.744C31.46 28.024 30.276 29.016 28.772 29.72C27.268 30.424 25.54 30.776 23.588 30.776L24.5 28.808C26.612 28.808 28.484 29.16 30.116 29.864C31.748 30.536 33.012 31.544 33.908 32.888C34.836 34.232 35.3 35.88 35.3 37.832C35.3 40.712 34.164 42.968 31.892 44.6C29.62 46.2 26.276 47 21.86 47H4.484ZM12.212 41.144H21.284C23.3 41.144 24.82 40.824 25.844 40.184C26.9 39.512 27.428 38.456 27.428 37.016C27.428 35.608 26.9 34.568 25.844 33.896C24.82 33.192 23.3 32.84 21.284 32.84H11.636V27.176H19.94C21.828 27.176 23.268 26.856 24.26 26.216C25.284 25.544 25.796 24.536 25.796 23.192C25.796 21.88 25.284 20.904 24.26 20.264C23.268 19.592 21.828 19.256 19.94 19.256H12.212V41.144ZM52.9471 47.384C50.1951 47.384 47.7471 46.808 45.6031 45.656C43.4911 44.504 41.8111 42.936 40.5631 40.952C39.3471 38.936 38.7391 36.648 38.7391 34.088C38.7391 31.496 39.3471 29.208 40.5631 27.224C41.8111 25.208 43.4911 23.64 45.6031 22.52C47.7471 21.368 50.1951 20.792 52.9471 20.792C55.6671 20.792 58.0991 21.368 60.2431 22.52C62.3871 23.64 64.0671 25.192 65.2831 27.176C66.4991 29.16 67.1071 31.464 67.1071 34.088C67.1071 36.648 66.4991 38.936 65.2831 40.952C64.0671 42.936 62.3871 44.504 60.2431 45.656C58.0991 46.808 55.6671 47.384 52.9471 47.384ZM52.9471 41.24C54.1951 41.24 55.3151 40.952 56.3071 40.376C57.2991 39.8 58.0831 38.984 58.6591 37.928C59.2351 36.84 59.5231 35.56 59.5231 34.088C59.5231 32.584 59.2351 31.304 58.6591 30.248C58.0831 29.192 57.2991 28.376 56.3071 27.8C55.3151 27.224 54.1951 26.936 52.9471 26.936C51.6991 26.936 50.5791 27.224 49.5871 27.8C48.5951 28.376 47.7951 29.192 47.1871 30.248C46.6111 31.304 46.3231 32.584 46.3231 34.088C46.3231 35.56 46.6111 36.84 47.1871 37.928C47.7951 38.984 48.5951 39.8 49.5871 40.376C50.5791 40.952 51.6991 41.24 52.9471 41.24ZM84.4003 47.384C81.6483 47.384 79.2003 46.808 77.0563 45.656C74.9443 44.504 73.2643 42.936 72.0163 40.952C70.8003 38.936 70.1923 36.648 70.1923 34.088C70.1923 31.496 70.8003 29.208 72.0163 27.224C73.2643 25.208 74.9443 23.64 77.0563 22.52C79.2003 21.368 81.6483 20.792 84.4003 20.792C87.1203 20.792 89.5523 21.368 91.6963 22.52C93.8403 23.64 95.5203 25.192 96.7363 27.176C97.9523 29.16 98.5603 31.464 98.5603 34.088C98.5603 36.648 97.9523 38.936 96.7363 40.952C95.5203 42.936 93.8403 44.504 91.6963 45.656C89.5523 46.808 87.1203 47.384 84.4003 47.384ZM84.4003 41.24C85.6483 41.24 86.7683 40.952 87.7603 40.376C88.7523 39.8 89.5363 38.984 90.1123 37.928C90.6883 36.84 90.9763 35.56 90.9763 34.088C90.9763 32.584 90.6883 31.304 90.1123 30.248C89.5363 29.192 88.7523 28.376 87.7603 27.8C86.7683 27.224 85.6483 26.936 84.4003 26.936C83.1523 26.936 82.0323 27.224 81.0403 27.8C80.0483 28.376 79.2483 29.192 78.6403 30.248C78.0643 31.304 77.7763 32.584 77.7763 34.088C77.7763 35.56 78.0643 36.84 78.6403 37.928C79.2483 38.984 80.0483 39.8 81.0403 40.376C82.0323 40.952 83.1523 41.24 84.4003 41.24ZM109.757 41.72L109.949 32.6L121.997 21.176H130.925L119.357 32.936L115.469 36.104L109.757 41.72ZM103.565 47V11.384H111.053V47H103.565ZM122.813 47L114.077 36.152L118.781 30.344L131.885 47H122.813ZM144.959 47L159.935 13.4H167.615L182.639 47H174.479L162.191 17.336H165.263L152.927 47H144.959ZM152.447 39.8L154.511 33.896H171.791L173.903 39.8H152.447ZM201.293 20.792C203.341 20.792 205.165 21.208 206.765 22.04C208.397 22.84 209.677 24.088 210.605 25.784C211.533 27.448 211.997 29.592 211.997 32.216V47H204.509V33.368C204.509 31.288 204.045 29.752 203.117 28.76C202.221 27.768 200.941 27.272 199.277 27.272C198.093 27.272 197.021 27.528 196.061 28.04C195.133 28.52 194.397 29.272 193.853 30.296C193.341 31.32 193.085 32.632 193.085 34.232V47H185.597V21.176H192.749V28.328L191.405 26.168C192.333 24.44 193.661 23.112 195.389 22.184C197.117 21.256 199.085 20.792 201.293 20.792ZM228.49 47L243.466 13.4H251.146L266.17 47H258.01L245.722 17.336H248.794L236.458 47H228.49ZM235.978 39.8L238.042 33.896H255.322L257.434 39.8H235.978ZM284.392 47.384C282.216 47.384 280.312 46.904 278.68 45.944C277.048 44.984 275.768 43.528 274.84 41.576C273.944 39.592 273.496 37.096 273.496 34.088C273.496 31.048 273.928 28.552 274.792 26.6C275.656 24.648 276.904 23.192 278.536 22.232C280.168 21.272 282.12 20.792 284.392 20.792C286.824 20.792 289 21.352 290.92 22.472C292.872 23.56 294.408 25.096 295.528 27.08C296.68 29.064 297.256 31.4 297.256 34.088C297.256 36.808 296.68 39.16 295.528 41.144C294.408 43.128 292.872 44.664 290.92 45.752C289 46.84 286.824 47.384 284.392 47.384ZM269.128 56.312V21.176H276.28V26.456L276.136 34.136L276.616 41.768V56.312H269.128ZM283.096 41.24C284.344 41.24 285.448 40.952 286.408 40.376C287.4 39.8 288.184 38.984 288.76 37.928C289.368 36.84 289.672 35.56 289.672 34.088C289.672 32.584 289.368 31.304 288.76 30.248C288.184 29.192 287.4 28.376 286.408 27.8C285.448 27.224 284.344 26.936 283.096 26.936C281.848 26.936 280.728 27.224 279.736 27.8C278.744 28.376 277.96 29.192 277.384 30.248C276.808 31.304 276.52 32.584 276.52 34.088C276.52 35.56 276.808 36.84 277.384 37.928C277.96 38.984 278.744 39.8 279.736 40.376C280.728 40.952 281.848 41.24 283.096 41.24ZM317.533 47.384C315.357 47.384 313.453 46.904 311.821 45.944C310.189 44.984 308.909 43.528 307.981 41.576C307.085 39.592 306.637 37.096 306.637 34.088C306.637 31.048 307.069 28.552 307.933 26.6C308.797 24.648 310.045 23.192 311.677 22.232C313.309 21.272 315.261 20.792 317.533 20.792C319.965 20.792 322.141 21.352 324.061 22.472C326.013 23.56 327.549 25.096 328.669 27.08C329.821 29.064 330.397 31.4 330.397 34.088C330.397 36.808 329.821 39.16 328.669 41.144C327.549 43.128 326.013 44.664 324.061 45.752C322.141 46.84 319.965 47.384 317.533 47.384ZM302.269 56.312V21.176H309.421V26.456L309.277 34.136L309.757 41.768V56.312H302.269ZM316.237 41.24C317.485 41.24 318.589 40.952 319.549 40.376C320.541 39.8 321.325 38.984 321.901 37.928C322.509 36.84 322.812 35.56 322.812 34.088C322.812 32.584 322.509 31.304 321.901 30.248C321.325 29.192 320.541 28.376 319.549 27.8C318.589 27.224 317.485 26.936 316.237 26.936C314.989 26.936 313.869 27.224 312.877 27.8C311.885 28.376 311.101 29.192 310.525 30.248C309.949 31.304 309.661 32.584 309.661 34.088C309.661 35.56 309.949 36.84 310.525 37.928C311.101 38.984 311.885 39.8 312.877 40.376C313.869 40.952 314.989 41.24 316.237 41.24ZM347.697 47.384C344.945 47.384 342.497 46.808 340.353 45.656C338.241 44.504 336.561 42.936 335.313 40.952C334.097 38.936 333.489 36.648 333.489 34.088C333.489 31.496 334.097 29.208 335.313 27.224C336.561 25.208 338.241 23.64 340.353 22.52C342.497 21.368 344.945 20.792 347.697 20.792C350.417 20.792 352.849 21.368 354.993 22.52C357.137 23.64 358.817 25.192 360.033 27.176C361.249 29.16 361.857 31.464 361.857 34.088C361.857 36.648 361.249 38.936 360.033 40.952C358.817 42.936 357.137 44.504 354.993 45.656C352.849 46.808 350.417 47.384 347.697 47.384ZM347.697 41.24C348.945 41.24 350.065 40.952 351.057 40.376C352.049 39.8 352.833 38.984 353.409 37.928C353.985 36.84 354.273 35.56 354.273 34.088C354.273 32.584 353.985 31.304 353.409 30.248C352.833 29.192 352.049 28.376 351.057 27.8C350.065 27.224 348.945 26.936 347.697 26.936C346.449 26.936 345.329 27.224 344.337 27.8C343.345 28.376 342.545 29.192 341.937 30.248C341.361 31.304 341.073 32.584 341.073 34.088C341.073 35.56 341.361 36.84 341.937 37.928C342.545 38.984 343.345 39.8 344.337 40.376C345.329 40.952 346.449 41.24 347.697 41.24ZM366.862 47V21.176H374.35V47H366.862ZM370.606 17.576C369.23 17.576 368.11 17.176 367.246 16.376C366.382 15.576 365.95 14.584 365.95 13.4C365.95 12.216 366.382 11.224 367.246 10.424C368.11 9.624 369.23 9.224 370.606 9.224C371.982 9.224 373.102 9.608 373.966 10.376C374.83 11.112 375.262 12.072 375.262 13.256C375.262 14.504 374.83 15.544 373.966 16.376C373.134 17.176 372.014 17.576 370.606 17.576ZM396.996 20.792C399.044 20.792 400.868 21.208 402.468 22.04C404.1 22.84 405.38 24.088 406.308 25.784C407.236 27.448 407.7 29.592 407.7 32.216V47H400.212V33.368C400.212 31.288 399.748 29.752 398.82 28.76C397.924 27.768 396.644 27.272 394.98 27.272C393.796 27.272 392.724 27.528 391.764 28.04C390.836 28.52 390.1 29.272 389.556 30.296C389.044 31.32 388.788 32.632 388.788 34.232V47H381.3V21.176H388.452V28.328L387.108 26.168C388.036 24.44 389.364 23.112 391.092 22.184C392.82 21.256 394.788 20.792 396.996 20.792ZM425.047 47.384C422.007 47.384 419.639 46.616 417.943 45.08C416.247 43.512 415.399 41.192 415.399 38.12V15.464H422.887V38.024C422.887 39.112 423.175 39.96 423.751 40.568C424.327 41.144 425.111 41.432 426.103 41.432C427.287 41.432 428.295 41.112 429.127 40.472L431.143 45.752C430.375 46.296 429.447 46.712 428.359 47C427.303 47.256 426.199 47.384 425.047 47.384ZM411.415 27.512V21.752H429.319V27.512H411.415ZM468.419 20.792C470.467 20.792 472.275 21.208 473.843 22.04C475.443 22.84 476.691 24.088 477.587 25.784C478.515 27.448 478.979 29.592 478.979 32.216V47H471.491V33.368C471.491 31.288 471.059 29.752 470.195 28.76C469.331 27.768 468.115 27.272 466.547 27.272C465.459 27.272 464.483 27.528 463.619 28.04C462.755 28.52 462.083 29.256 461.603 30.248C461.123 31.24 460.883 32.504 460.883 34.04V47H453.395V33.368C453.395 31.288 452.963 29.752 452.099 28.76C451.267 27.768 450.067 27.272 448.499 27.272C447.411 27.272 446.435 27.528 445.571 28.04C444.707 28.52 444.035 29.256 443.555 30.248C443.075 31.24 442.835 32.504 442.835 34.04V47H435.347V21.176H442.499V28.232L441.155 26.168C442.051 24.408 443.315 23.08 444.947 22.184C446.611 21.256 448.499 20.792 450.611 20.792C452.979 20.792 455.043 21.4 456.803 22.616C458.595 23.8 459.779 25.624 460.355 28.088L457.715 27.368C458.579 25.352 459.955 23.752 461.843 22.568C463.763 21.384 465.955 20.792 468.419 20.792ZM498.694 47.384C495.75 47.384 493.158 46.808 490.918 45.656C488.71 44.504 486.998 42.936 485.782 40.952C484.566 38.936 483.958 36.648 483.958 34.088C483.958 31.496 484.55 29.208 485.734 27.224C486.95 25.208 488.598 23.64 490.678 22.52C492.758 21.368 495.11 20.792 497.734 20.792C500.262 20.792 502.534 21.336 504.55 22.424C506.598 23.48 508.214 25.016 509.398 27.032C510.582 29.016 511.174 31.4 511.174 34.184C511.174 34.472 511.158 34.808 511.126 35.192C511.094 35.544 511.062 35.88 511.03 36.2H490.054V31.832H507.094L504.214 33.128C504.214 31.784 503.942 30.616 503.398 29.624C502.854 28.632 502.102 27.864 501.142 27.32C500.182 26.744 499.062 26.456 497.782 26.456C496.502 26.456 495.366 26.744 494.374 27.32C493.414 27.864 492.662 28.648 492.118 29.672C491.574 30.664 491.302 31.848 491.302 33.224V34.376C491.302 35.784 491.606 37.032 492.214 38.12C492.854 39.176 493.734 39.992 494.854 40.568C496.006 41.112 497.35 41.384 498.886 41.384C500.262 41.384 501.462 41.176 502.486 40.76C503.542 40.344 504.502 39.72 505.366 38.888L509.35 43.208C508.166 44.552 506.678 45.592 504.886 46.328C503.094 47.032 501.03 47.384 498.694 47.384ZM531.855 20.792C533.903 20.792 535.727 21.208 537.327 22.04C538.959 22.84 540.239 24.088 541.167 25.784C542.095 27.448 542.559 29.592 542.559 32.216V47H535.071V33.368C535.071 31.288 534.607 29.752 533.679 28.76C532.783 27.768 531.503 27.272 529.839 27.272C528.655 27.272 527.583 27.528 526.623 28.04C525.695 28.52 524.959 29.272 524.415 30.296C523.903 31.32 523.647 32.632 523.647 34.232V47H516.159V21.176H523.311V28.328L521.967 26.168C522.895 24.44 524.223 23.112 525.951 22.184C527.679 21.256 529.647 20.792 531.855 20.792ZM559.907 47.384C556.867 47.384 554.499 46.616 552.803 45.08C551.107 43.512 550.259 41.192 550.259 38.12V15.464H557.747V38.024C557.747 39.112 558.035 39.96 558.611 40.568C559.187 41.144 559.971 41.432 560.963 41.432C562.147 41.432 563.155 41.112 563.987 40.472L566.003 45.752C565.235 46.296 564.307 46.712 563.219 47C562.163 47.256 561.059 47.384 559.907 47.384ZM546.275 27.512V21.752H564.179V27.512H546.275Z" fill="white"/>
<path d="M7.188 86.192C6.324 86.192 5.51867 86.0533 4.772 85.776C4.036 85.488 3.396 85.0827 2.852 84.56C2.308 84.0373 1.88133 83.424 1.572 82.72C1.27333 82.016 1.124 81.2427 1.124 80.4C1.124 79.5573 1.27333 78.784 1.572 78.08C1.88133 77.376 2.308 76.7627 2.852 76.24C3.40667 75.7173 4.052 75.3173 4.788 75.04C5.524 74.752 6.32933 74.608 7.204 74.608C8.17467 74.608 9.04933 74.7787 9.828 75.12C10.6173 75.4507 11.2787 75.9413 11.812 76.592L10.148 78.128C9.764 77.6907 9.33733 77.3653 8.868 77.152C8.39867 76.928 7.88667 76.816 7.332 76.816C6.80933 76.816 6.32933 76.9013 5.892 77.072C5.45467 77.2427 5.076 77.488 4.756 77.808C4.436 78.128 4.18533 78.5067 4.004 78.944C3.83333 79.3813 3.748 79.8667 3.748 80.4C3.748 80.9333 3.83333 81.4187 4.004 81.856C4.18533 82.2933 4.436 82.672 4.756 82.992C5.076 83.312 5.45467 83.5573 5.892 83.728C6.32933 83.8987 6.80933 83.984 7.332 83.984C7.88667 83.984 8.39867 83.8773 8.868 83.664C9.33733 83.44 9.764 83.104 10.148 82.656L11.812 84.192C11.2787 84.8427 10.6173 85.3387 9.828 85.68C9.04933 86.0213 8.16933 86.192 7.188 86.192ZM13.3864 86V74.128H15.8824V86H13.3864ZM18.1989 86V77.392H20.6949V86H18.1989ZM19.4469 76.192C18.9882 76.192 18.6149 76.0587 18.3269 75.792C18.0389 75.5253 17.8949 75.1947 17.8949 74.8C17.8949 74.4053 18.0389 74.0747 18.3269 73.808C18.6149 73.5413 18.9882 73.408 19.4469 73.408C19.9055 73.408 20.2789 73.536 20.5669 73.792C20.8549 74.0373 20.9989 74.3573 20.9989 74.752C20.9989 75.168 20.8549 75.5147 20.5669 75.792C20.2895 76.0587 19.9162 76.192 19.4469 76.192ZM27.1714 86.128C26.2434 86.128 25.4167 85.9413 24.6914 85.568C23.966 85.184 23.3954 84.656 22.9794 83.984C22.574 83.312 22.3714 82.5493 22.3714 81.696C22.3714 80.832 22.574 80.0693 22.9794 79.408C23.3954 78.736 23.966 78.2133 24.6914 77.84C25.4167 77.456 26.2434 77.264 27.1714 77.264C28.078 77.264 28.8674 77.456 29.5394 77.84C30.2114 78.2133 30.7074 78.752 31.0274 79.456L29.0914 80.496C28.8674 80.0907 28.5847 79.792 28.2434 79.6C27.9127 79.408 27.55 79.312 27.1554 79.312C26.7287 79.312 26.3447 79.408 26.0034 79.6C25.662 79.792 25.39 80.064 25.1874 80.416C24.9954 80.768 24.8994 81.1947 24.8994 81.696C24.8994 82.1973 24.9954 82.624 25.1874 82.976C25.39 83.328 25.662 83.6 26.0034 83.792C26.3447 83.984 26.7287 84.08 27.1554 84.08C27.55 84.08 27.9127 83.9893 28.2434 83.808C28.5847 83.616 28.8674 83.312 29.0914 82.896L31.0274 83.952C30.7074 84.6453 30.2114 85.184 29.5394 85.568C28.8674 85.9413 28.078 86.128 27.1714 86.128ZM34.4816 84.24L34.5456 81.2L38.5616 77.392H41.5376L37.6816 81.312L36.3856 82.368L34.4816 84.24ZM32.4176 86V74.128H34.9136V86H32.4176ZM38.8336 86L35.9216 82.384L37.4896 80.448L41.8576 86H38.8336ZM52.7914 86V84.32L52.6314 83.952V80.944C52.6314 80.4107 52.466 79.9947 52.1354 79.696C51.8154 79.3973 51.3194 79.248 50.6474 79.248C50.1887 79.248 49.7354 79.3227 49.2874 79.472C48.85 79.6107 48.4767 79.8027 48.1674 80.048L47.2714 78.304C47.7407 77.9733 48.306 77.7173 48.9674 77.536C49.6287 77.3547 50.3007 77.264 50.9834 77.264C52.2954 77.264 53.314 77.5733 54.0394 78.192C54.7647 78.8107 55.1274 79.776 55.1274 81.088V86H52.7914ZM50.1674 86.128C49.4954 86.128 48.9194 86.016 48.4394 85.792C47.9594 85.5573 47.5914 85.2427 47.3354 84.848C47.0794 84.4533 46.9514 84.0107 46.9514 83.52C46.9514 83.008 47.074 82.56 47.3194 82.176C47.5754 81.792 47.9754 81.4933 48.5194 81.28C49.0634 81.056 49.7727 80.944 50.6474 80.944H52.9354V82.4H50.9194C50.3327 82.4 49.9274 82.496 49.7034 82.688C49.49 82.88 49.3834 83.12 49.3834 83.408C49.3834 83.728 49.506 83.984 49.7514 84.176C50.0074 84.3573 50.354 84.448 50.7914 84.448C51.2074 84.448 51.5807 84.352 51.9114 84.16C52.242 83.9573 52.482 83.664 52.6314 83.28L53.0154 84.432C52.834 84.9867 52.5034 85.408 52.0234 85.696C51.5434 85.984 50.9247 86.128 50.1674 86.128ZM62.6184 77.264C63.301 77.264 63.909 77.4027 64.4424 77.68C64.9864 77.9467 65.413 78.3627 65.7224 78.928C66.0317 79.4827 66.1864 80.1973 66.1864 81.072V86H63.6904V81.456C63.6904 80.7627 63.5357 80.2507 63.2264 79.92C62.9277 79.5893 62.501 79.424 61.9464 79.424C61.5517 79.424 61.1944 79.5093 60.8744 79.68C60.565 79.84 60.3197 80.0907 60.1384 80.432C59.9677 80.7733 59.8824 81.2107 59.8824 81.744V86H57.3864V77.392H59.7704V79.776L59.3224 79.056C59.6317 78.48 60.0744 78.0373 60.6504 77.728C61.2264 77.4187 61.8824 77.264 62.6184 77.264ZM72.2074 86.128C71.3967 86.128 70.666 85.9467 70.0154 85.584C69.3647 85.2107 68.8474 84.6933 68.4634 84.032C68.09 83.3707 67.9034 82.592 67.9034 81.696C67.9034 80.7893 68.09 80.0053 68.4634 79.344C68.8474 78.6827 69.3647 78.1707 70.0154 77.808C70.666 77.4453 71.3967 77.264 72.2074 77.264C72.9327 77.264 73.5674 77.424 74.1114 77.744C74.6554 78.064 75.0767 78.5493 75.3754 79.2C75.674 79.8507 75.8234 80.6827 75.8234 81.696C75.8234 82.6987 75.6794 83.5307 75.3914 84.192C75.1034 84.8427 74.6874 85.328 74.1434 85.648C73.61 85.968 72.9647 86.128 72.2074 86.128ZM72.6394 84.08C73.0447 84.08 73.4127 83.984 73.7434 83.792C74.074 83.6 74.3354 83.328 74.5274 82.976C74.73 82.6133 74.8314 82.1867 74.8314 81.696C74.8314 81.1947 74.73 80.768 74.5274 80.416C74.3354 80.064 74.074 79.792 73.7434 79.6C73.4127 79.408 73.0447 79.312 72.6394 79.312C72.2234 79.312 71.85 79.408 71.5194 79.6C71.1887 79.792 70.922 80.064 70.7194 80.416C70.5274 80.768 70.4314 81.1947 70.4314 81.696C70.4314 82.1867 70.5274 82.6133 70.7194 82.976C70.922 83.328 71.1887 83.6 71.5194 83.792C71.85 83.984 72.2234 84.08 72.6394 84.08ZM74.8954 86V84.24L74.9434 81.68L74.7834 79.136V74.128H77.2794V86H74.8954ZM89.2088 86.128C88.4514 86.128 87.8008 85.968 87.2568 85.648C86.7128 85.328 86.2968 84.8427 86.0088 84.192C85.7208 83.5307 85.5768 82.6987 85.5768 81.696C85.5768 80.6827 85.7261 79.8507 86.0248 79.2C86.3341 78.5493 86.7608 78.064 87.3048 77.744C87.8488 77.424 88.4834 77.264 89.2088 77.264C90.0194 77.264 90.7448 77.4453 91.3848 77.808C92.0354 78.1707 92.5474 78.6827 92.9208 79.344C93.3048 80.0053 93.4968 80.7893 93.4968 81.696C93.4968 82.592 93.3048 83.3707 92.9208 84.032C92.5474 84.6933 92.0354 85.2107 91.3848 85.584C90.7448 85.9467 90.0194 86.128 89.2088 86.128ZM84.1208 86V74.128H86.6168V79.136L86.4568 81.68L86.5048 84.24V86H84.1208ZM88.7768 84.08C89.1928 84.08 89.5608 83.984 89.8808 83.792C90.2114 83.6 90.4728 83.328 90.6648 82.976C90.8674 82.6133 90.9688 82.1867 90.9688 81.696C90.9688 81.1947 90.8674 80.768 90.6648 80.416C90.4728 80.064 90.2114 79.792 89.8808 79.6C89.5608 79.408 89.1928 79.312 88.7768 79.312C88.3608 79.312 87.9874 79.408 87.6568 79.6C87.3261 79.792 87.0648 80.064 86.8728 80.416C86.6808 80.768 86.5848 81.1947 86.5848 81.696C86.5848 82.1867 86.6808 82.6133 86.8728 82.976C87.0648 83.328 87.3261 83.6 87.6568 83.792C87.9874 83.984 88.3608 84.08 88.7768 84.08ZM99.2636 86.128C98.3463 86.128 97.5303 85.936 96.8156 85.552C96.1116 85.168 95.5516 84.6453 95.1356 83.984C94.7303 83.312 94.5276 82.5493 94.5276 81.696C94.5276 80.832 94.7303 80.0693 95.1356 79.408C95.5516 78.736 96.1116 78.2133 96.8156 77.84C97.5303 77.456 98.3463 77.264 99.2636 77.264C100.17 77.264 100.981 77.456 101.696 77.84C102.41 78.2133 102.97 78.7307 103.376 79.392C103.781 80.0533 103.984 80.8213 103.984 81.696C103.984 82.5493 103.781 83.312 103.376 83.984C102.97 84.6453 102.41 85.168 101.696 85.552C100.981 85.936 100.17 86.128 99.2636 86.128ZM99.2636 84.08C99.6796 84.08 100.053 83.984 100.384 83.792C100.714 83.6 100.976 83.328 101.168 82.976C101.36 82.6133 101.456 82.1867 101.456 81.696C101.456 81.1947 101.36 80.768 101.168 80.416C100.976 80.064 100.714 79.792 100.384 79.6C100.053 79.408 99.6796 79.312 99.2636 79.312C98.8476 79.312 98.4743 79.408 98.1436 79.6C97.813 79.792 97.5463 80.064 97.3436 80.416C97.1516 80.768 97.0556 81.1947 97.0556 81.696C97.0556 82.1867 97.1516 82.6133 97.3436 82.976C97.5463 83.328 97.813 83.6 98.1436 83.792C98.4743 83.984 98.8476 84.08 99.2636 84.08ZM109.748 86.128C108.831 86.128 108.015 85.936 107.3 85.552C106.596 85.168 106.036 84.6453 105.62 83.984C105.215 83.312 105.012 82.5493 105.012 81.696C105.012 80.832 105.215 80.0693 105.62 79.408C106.036 78.736 106.596 78.2133 107.3 77.84C108.015 77.456 108.831 77.264 109.748 77.264C110.655 77.264 111.465 77.456 112.18 77.84C112.895 78.2133 113.455 78.7307 113.86 79.392C114.265 80.0533 114.468 80.8213 114.468 81.696C114.468 82.5493 114.265 83.312 113.86 83.984C113.455 84.6453 112.895 85.168 112.18 85.552C111.465 85.936 110.655 86.128 109.748 86.128ZM109.748 84.08C110.164 84.08 110.537 83.984 110.868 83.792C111.199 83.6 111.46 83.328 111.652 82.976C111.844 82.6133 111.94 82.1867 111.94 81.696C111.94 81.1947 111.844 80.768 111.652 80.416C111.46 80.064 111.199 79.792 110.868 79.6C110.537 79.408 110.164 79.312 109.748 79.312C109.332 79.312 108.959 79.408 108.628 79.6C108.297 79.792 108.031 80.064 107.828 80.416C107.636 80.768 107.54 81.1947 107.54 81.696C107.54 82.1867 107.636 82.6133 107.828 82.976C108.031 83.328 108.297 83.6 108.628 83.792C108.959 83.984 109.332 84.08 109.748 84.08ZM118.2 84.24L118.264 81.2L122.28 77.392H125.256L121.4 81.312L120.104 82.368L118.2 84.24ZM116.136 86V74.128H118.632V86H116.136ZM122.552 86L119.64 82.384L121.208 80.448L125.576 86H122.552ZM136.51 86V84.32L136.35 83.952V80.944C136.35 80.4107 136.185 79.9947 135.854 79.696C135.534 79.3973 135.038 79.248 134.366 79.248C133.907 79.248 133.454 79.3227 133.006 79.472C132.569 79.6107 132.195 79.8027 131.886 80.048L130.99 78.304C131.459 77.9733 132.025 77.7173 132.686 77.536C133.347 77.3547 134.019 77.264 134.702 77.264C136.014 77.264 137.033 77.5733 137.758 78.192C138.483 78.8107 138.846 79.776 138.846 81.088V86H136.51ZM133.886 86.128C133.214 86.128 132.638 86.016 132.158 85.792C131.678 85.5573 131.31 85.2427 131.054 84.848C130.798 84.4533 130.67 84.0107 130.67 83.52C130.67 83.008 130.793 82.56 131.038 82.176C131.294 81.792 131.694 81.4933 132.238 81.28C132.782 81.056 133.491 80.944 134.366 80.944H136.654V82.4H134.638C134.051 82.4 133.646 82.496 133.422 82.688C133.209 82.88 133.102 83.12 133.102 83.408C133.102 83.728 133.225 83.984 133.47 84.176C133.726 84.3573 134.073 84.448 134.51 84.448C134.926 84.448 135.299 84.352 135.63 84.16C135.961 83.9573 136.201 83.664 136.35 83.28L136.734 84.432C136.553 84.9867 136.222 85.408 135.742 85.696C135.262 85.984 134.643 86.128 133.886 86.128ZM156.66 77.264C157.343 77.264 157.946 77.4027 158.468 77.68C159.002 77.9467 159.418 78.3627 159.716 78.928C160.026 79.4827 160.18 80.1973 160.18 81.072V86H157.684V81.456C157.684 80.7627 157.54 80.2507 157.252 79.92C156.964 79.5893 156.559 79.424 156.036 79.424C155.674 79.424 155.348 79.5093 155.06 79.68C154.772 79.84 154.548 80.0853 154.388 80.416C154.228 80.7467 154.148 81.168 154.148 81.68V86H151.652V81.456C151.652 80.7627 151.508 80.2507 151.22 79.92C150.943 79.5893 150.543 79.424 150.02 79.424C149.658 79.424 149.332 79.5093 149.044 79.68C148.756 79.84 148.532 80.0853 148.372 80.416C148.212 80.7467 148.132 81.168 148.132 81.68V86H145.636V77.392H148.02V79.744L147.572 79.056C147.871 78.4693 148.292 78.0267 148.836 77.728C149.391 77.4187 150.02 77.264 150.724 77.264C151.514 77.264 152.202 77.4667 152.788 77.872C153.386 78.2667 153.78 78.8747 153.972 79.696L153.092 79.456C153.38 78.784 153.839 78.2507 154.468 77.856C155.108 77.4613 155.839 77.264 156.66 77.264ZM166.752 86.128C165.771 86.128 164.907 85.936 164.16 85.552C163.424 85.168 162.853 84.6453 162.448 83.984C162.043 83.312 161.84 82.5493 161.84 81.696C161.84 80.832 162.037 80.0693 162.432 79.408C162.837 78.736 163.387 78.2133 164.08 77.84C164.773 77.456 165.557 77.264 166.432 77.264C167.275 77.264 168.032 77.4453 168.704 77.808C169.387 78.16 169.925 78.672 170.32 79.344C170.715 80.0053 170.912 80.8 170.912 81.728C170.912 81.824 170.907 81.936 170.896 82.064C170.885 82.1813 170.875 82.2933 170.864 82.4H163.872V80.944H169.552L168.592 81.376C168.592 80.928 168.501 80.5387 168.32 80.208C168.139 79.8773 167.888 79.6213 167.568 79.44C167.248 79.248 166.875 79.152 166.448 79.152C166.021 79.152 165.643 79.248 165.312 79.44C164.992 79.6213 164.741 79.8827 164.56 80.224C164.379 80.5547 164.288 80.9493 164.288 81.408V81.792C164.288 82.2613 164.389 82.6773 164.592 83.04C164.805 83.392 165.099 83.664 165.472 83.856C165.856 84.0373 166.304 84.128 166.816 84.128C167.275 84.128 167.675 84.0587 168.016 83.92C168.368 83.7813 168.688 83.5733 168.976 83.296L170.304 84.736C169.909 85.184 169.413 85.5307 168.816 85.776C168.219 86.0107 167.531 86.128 166.752 86.128ZM176.846 86.128C175.865 86.128 175.001 85.936 174.254 85.552C173.518 85.168 172.947 84.6453 172.542 83.984C172.137 83.312 171.934 82.5493 171.934 81.696C171.934 80.832 172.131 80.0693 172.526 79.408C172.931 78.736 173.481 78.2133 174.174 77.84C174.867 77.456 175.651 77.264 176.526 77.264C177.369 77.264 178.126 77.4453 178.798 77.808C179.481 78.16 180.019 78.672 180.414 79.344C180.809 80.0053 181.006 80.8 181.006 81.728C181.006 81.824 181.001 81.936 180.99 82.064C180.979 82.1813 180.969 82.2933 180.958 82.4H173.966V80.944H179.646L178.686 81.376C178.686 80.928 178.595 80.5387 178.414 80.208C178.233 79.8773 177.982 79.6213 177.662 79.44C177.342 79.248 176.969 79.152 176.542 79.152C176.115 79.152 175.737 79.248 175.406 79.44C175.086 79.6213 174.835 79.8827 174.654 80.224C174.473 80.5547 174.382 80.9493 174.382 81.408V81.792C174.382 82.2613 174.483 82.6773 174.686 83.04C174.899 83.392 175.193 83.664 175.566 83.856C175.95 84.0373 176.398 84.128 176.91 84.128C177.369 84.128 177.769 84.0587 178.11 83.92C178.462 83.7813 178.782 83.5733 179.07 83.296L180.398 84.736C180.003 85.184 179.507 85.5307 178.91 85.776C178.313 86.0107 177.625 86.128 176.846 86.128ZM186.188 86.128C185.174 86.128 184.385 85.872 183.82 85.36C183.254 84.8373 182.972 84.064 182.972 83.04V75.488H185.468V83.008C185.468 83.3707 185.564 83.6533 185.756 83.856C185.948 84.048 186.209 84.144 186.54 84.144C186.934 84.144 187.27 84.0373 187.548 83.824L188.22 85.584C187.964 85.7653 187.654 85.904 187.292 86C186.94 86.0853 186.572 86.128 186.188 86.128ZM181.644 79.504V77.584H187.612V79.504H181.644ZM189.621 86V77.392H192.117V86H189.621ZM190.869 76.192C190.41 76.192 190.037 76.0587 189.749 75.792C189.461 75.5253 189.317 75.1947 189.317 74.8C189.317 74.4053 189.461 74.0747 189.749 73.808C190.037 73.5413 190.41 73.408 190.869 73.408C191.327 73.408 191.701 73.536 191.989 73.792C192.277 74.0373 192.421 74.3573 192.421 74.752C192.421 75.168 192.277 75.5147 191.989 75.792C191.711 76.0587 191.338 76.192 190.869 76.192ZM199.665 77.264C200.348 77.264 200.956 77.4027 201.489 77.68C202.033 77.9467 202.46 78.3627 202.769 78.928C203.079 79.4827 203.233 80.1973 203.233 81.072V86H200.737V81.456C200.737 80.7627 200.583 80.2507 200.273 79.92C199.975 79.5893 199.548 79.424 198.993 79.424C198.599 79.424 198.241 79.5093 197.921 79.68C197.612 79.84 197.367 80.0907 197.185 80.432C197.015 80.7733 196.929 81.2107 196.929 81.744V86H194.433V77.392H196.817V79.776L196.369 79.056C196.679 78.48 197.121 78.0373 197.697 77.728C198.273 77.4187 198.929 77.264 199.665 77.264ZM209.606 89.232C208.796 89.232 208.012 89.1307 207.254 88.928C206.508 88.736 205.884 88.4427 205.382 88.048L206.374 86.256C206.737 86.5547 207.196 86.7893 207.75 86.96C208.316 87.1413 208.87 87.232 209.414 87.232C210.3 87.232 210.94 87.0347 211.334 86.64C211.74 86.2453 211.942 85.6587 211.942 84.88V83.584L212.102 81.424L212.07 79.248V77.392H214.438V84.56C214.438 86.16 214.022 87.3387 213.19 88.096C212.358 88.8533 211.164 89.232 209.606 89.232ZM209.222 85.584C208.422 85.584 207.697 85.4133 207.046 85.072C206.406 84.72 205.889 84.2347 205.494 83.616C205.11 82.9867 204.918 82.256 204.918 81.424C204.918 80.5813 205.11 79.8507 205.494 79.232C205.889 78.6027 206.406 78.1173 207.046 77.776C207.697 77.4347 208.422 77.264 209.222 77.264C209.948 77.264 210.588 77.4133 211.142 77.712C211.697 78 212.129 78.4533 212.438 79.072C212.748 79.68 212.902 80.464 212.902 81.424C212.902 82.3733 212.748 83.1573 212.438 83.776C212.129 84.384 211.697 84.8373 211.142 85.136C210.588 85.4347 209.948 85.584 209.222 85.584ZM209.718 83.536C210.156 83.536 210.545 83.4507 210.886 83.28C211.228 83.0987 211.494 82.848 211.686 82.528C211.878 82.208 211.974 81.84 211.974 81.424C211.974 80.9973 211.878 80.6293 211.686 80.32C211.494 80 211.228 79.7547 210.886 79.584C210.545 79.4027 210.156 79.312 209.718 79.312C209.281 79.312 208.892 79.4027 208.55 79.584C208.209 79.7547 207.937 80 207.734 80.32C207.542 80.6293 207.446 80.9973 207.446 81.424C207.446 81.84 207.542 82.208 207.734 82.528C207.937 82.848 208.209 83.0987 208.55 83.28C208.892 83.4507 209.281 83.536 209.718 83.536ZM223.261 86L220.157 77.392H222.509L225.085 84.8H223.965L226.653 77.392H228.765L231.373 84.8H230.253L232.909 77.392H235.117L231.997 86H229.581L227.293 79.648H228.029L225.661 86H223.261ZM236.277 86V77.392H238.773V86H236.277ZM237.525 76.192C237.066 76.192 236.693 76.0587 236.405 75.792C236.117 75.5253 235.973 75.1947 235.973 74.8C235.973 74.4053 236.117 74.0747 236.405 73.808C236.693 73.5413 237.066 73.408 237.525 73.408C237.984 73.408 238.357 73.536 238.645 73.792C238.933 74.0373 239.077 74.3573 239.077 74.752C239.077 75.168 238.933 75.5147 238.645 75.792C238.368 76.0587 237.994 76.192 237.525 76.192ZM244.61 86.128C243.596 86.128 242.807 85.872 242.242 85.36C241.676 84.8373 241.394 84.064 241.394 83.04V75.488H243.89V83.008C243.89 83.3707 243.986 83.6533 244.178 83.856C244.37 84.048 244.631 84.144 244.962 84.144C245.356 84.144 245.692 84.0373 245.97 83.824L246.642 85.584C246.386 85.7653 246.076 85.904 245.714 86C245.362 86.0853 244.994 86.128 244.61 86.128ZM240.066 79.504V77.584H246.034V79.504H240.066ZM253.275 77.264C253.957 77.264 254.565 77.4027 255.099 77.68C255.643 77.9467 256.069 78.3627 256.379 78.928C256.688 79.4827 256.843 80.1973 256.843 81.072V86H254.347V81.456C254.347 80.7627 254.192 80.2507 253.883 79.92C253.584 79.5893 253.157 79.424 252.603 79.424C252.208 79.424 251.851 79.5093 251.531 79.68C251.221 79.84 250.976 80.0907 250.795 80.432C250.624 80.7733 250.539 81.2107 250.539 81.744V86H248.043V74.128H250.539V79.776L249.979 79.056C250.288 78.48 250.731 78.0373 251.307 77.728C251.883 77.4187 252.539 77.264 253.275 77.264ZM274.66 77.264C275.343 77.264 275.946 77.4027 276.468 77.68C277.002 77.9467 277.418 78.3627 277.716 78.928C278.026 79.4827 278.18 80.1973 278.18 81.072V86H275.684V81.456C275.684 80.7627 275.54 80.2507 275.252 79.92C274.964 79.5893 274.559 79.424 274.036 79.424C273.674 79.424 273.348 79.5093 273.06 79.68C272.772 79.84 272.548 80.0853 272.388 80.416C272.228 80.7467 272.148 81.168 272.148 81.68V86H269.652V81.456C269.652 80.7627 269.508 80.2507 269.22 79.92C268.943 79.5893 268.543 79.424 268.02 79.424C267.658 79.424 267.332 79.5093 267.044 79.68C266.756 79.84 266.532 80.0853 266.372 80.416C266.212 80.7467 266.132 81.168 266.132 81.68V86H263.636V77.392H266.02V79.744L265.572 79.056C265.871 78.4693 266.292 78.0267 266.836 77.728C267.391 77.4187 268.02 77.264 268.724 77.264C269.514 77.264 270.202 77.4667 270.788 77.872C271.386 78.2667 271.78 78.8747 271.972 79.696L271.092 79.456C271.38 78.784 271.839 78.2507 272.468 77.856C273.108 77.4613 273.839 77.264 274.66 77.264ZM284.752 86.128C283.771 86.128 282.907 85.936 282.16 85.552C281.424 85.168 280.853 84.6453 280.448 83.984C280.043 83.312 279.84 82.5493 279.84 81.696C279.84 80.832 280.037 80.0693 280.432 79.408C280.837 78.736 281.387 78.2133 282.08 77.84C282.773 77.456 283.557 77.264 284.432 77.264C285.275 77.264 286.032 77.4453 286.704 77.808C287.387 78.16 287.925 78.672 288.32 79.344C288.715 80.0053 288.912 80.8 288.912 81.728C288.912 81.824 288.907 81.936 288.896 82.064C288.885 82.1813 288.875 82.2933 288.864 82.4H281.872V80.944H287.552L286.592 81.376C286.592 80.928 286.501 80.5387 286.32 80.208C286.139 79.8773 285.888 79.6213 285.568 79.44C285.248 79.248 284.875 79.152 284.448 79.152C284.021 79.152 283.643 79.248 283.312 79.44C282.992 79.6213 282.741 79.8827 282.56 80.224C282.379 80.5547 282.288 80.9493 282.288 81.408V81.792C282.288 82.2613 282.389 82.6773 282.592 83.04C282.805 83.392 283.099 83.664 283.472 83.856C283.856 84.0373 284.304 84.128 284.816 84.128C285.275 84.128 285.675 84.0587 286.016 83.92C286.368 83.7813 286.688 83.5733 286.976 83.296L288.304 84.736C287.909 85.184 287.413 85.5307 286.816 85.776C286.219 86.0107 285.531 86.128 284.752 86.128ZM299.201 86.128C298.284 86.128 297.468 85.936 296.753 85.552C296.049 85.168 295.489 84.6453 295.073 83.984C294.668 83.312 294.465 82.5493 294.465 81.696C294.465 80.832 294.668 80.0693 295.073 79.408C295.489 78.736 296.049 78.2133 296.753 77.84C297.468 77.456 298.284 77.264 299.201 77.264C300.108 77.264 300.918 77.456 301.633 77.84C302.348 78.2133 302.908 78.7307 303.313 79.392C303.718 80.0533 303.921 80.8213 303.921 81.696C303.921 82.5493 303.718 83.312 303.313 83.984C302.908 84.6453 302.348 85.168 301.633 85.552C300.918 85.936 300.108 86.128 299.201 86.128ZM299.201 84.08C299.617 84.08 299.99 83.984 300.321 83.792C300.652 83.6 300.913 83.328 301.105 82.976C301.297 82.6133 301.393 82.1867 301.393 81.696C301.393 81.1947 301.297 80.768 301.105 80.416C300.913 80.064 300.652 79.792 300.321 79.6C299.99 79.408 299.617 79.312 299.201 79.312C298.785 79.312 298.412 79.408 298.081 79.6C297.75 79.792 297.484 80.064 297.281 80.416C297.089 80.768 296.993 81.1947 296.993 81.696C296.993 82.1867 297.089 82.6133 297.281 82.976C297.484 83.328 297.75 83.6 298.081 83.792C298.412 83.984 298.785 84.08 299.201 84.08ZM305.59 86V77.392H307.974V79.824L307.638 79.12C307.894 78.512 308.304 78.0533 308.87 77.744C309.435 77.424 310.123 77.264 310.934 77.264V79.568C310.827 79.5573 310.731 79.552 310.646 79.552C310.56 79.5413 310.47 79.536 310.374 79.536C309.691 79.536 309.136 79.7333 308.71 80.128C308.294 80.512 308.086 81.1147 308.086 81.936V86H305.59ZM4.548 106.128C3.812 106.128 3.10267 106.043 2.42 105.872C1.748 105.691 1.21467 105.467 0.82 105.2L1.652 103.408C2.04667 103.653 2.51067 103.856 3.044 104.016C3.588 104.165 4.12133 104.24 4.644 104.24C5.22 104.24 5.62533 104.171 5.86 104.032C6.10533 103.893 6.228 103.701 6.228 103.456C6.228 103.253 6.132 103.104 5.94 103.008C5.75867 102.901 5.51333 102.821 5.204 102.768C4.89467 102.715 4.55333 102.661 4.18 102.608C3.81733 102.555 3.44933 102.485 3.076 102.4C2.70267 102.304 2.36133 102.165 2.052 101.984C1.74267 101.803 1.492 101.557 1.3 101.248C1.11867 100.939 1.028 100.539 1.028 100.048C1.028 99.504 1.18267 99.024 1.492 98.608C1.812 98.192 2.27067 97.8667 2.868 97.632C3.46533 97.3867 4.18 97.264 5.012 97.264C5.59867 97.264 6.196 97.328 6.804 97.456C7.412 97.584 7.91867 97.7707 8.324 98.016L7.492 99.792C7.076 99.5467 6.65467 99.3813 6.228 99.296C5.812 99.2 5.40667 99.152 5.012 99.152C4.45733 99.152 4.052 99.2267 3.796 99.376C3.54 99.5253 3.412 99.7173 3.412 99.952C3.412 100.165 3.50267 100.325 3.684 100.432C3.876 100.539 4.12667 100.624 4.436 100.688C4.74533 100.752 5.08133 100.811 5.444 100.864C5.81733 100.907 6.19067 100.976 6.564 101.072C6.93733 101.168 7.27333 101.307 7.572 101.488C7.88133 101.659 8.132 101.899 8.324 102.208C8.516 102.507 8.612 102.901 8.612 103.392C8.612 103.925 8.452 104.4 8.132 104.816C7.812 105.221 7.348 105.541 6.74 105.776C6.14267 106.011 5.412 106.128 4.548 106.128ZM14.424 106.128C13.4427 106.128 12.5787 105.936 11.832 105.552C11.096 105.168 10.5253 104.645 10.12 103.984C9.71467 103.312 9.512 102.549 9.512 101.696C9.512 100.832 9.70933 100.069 10.104 99.408C10.5093 98.736 11.0587 98.2133 11.752 97.84C12.4453 97.456 13.2293 97.264 14.104 97.264C14.9467 97.264 15.704 97.4453 16.376 97.808C17.0587 98.16 17.5973 98.672 17.992 99.344C18.3867 100.005 18.584 100.8 18.584 101.728C18.584 101.824 18.5787 101.936 18.568 102.064C18.5573 102.181 18.5467 102.293 18.536 102.4H11.544V100.944H17.224L16.264 101.376C16.264 100.928 16.1733 100.539 15.992 100.208C15.8107 99.8773 15.56 99.6213 15.24 99.44C14.92 99.248 14.5467 99.152 14.12 99.152C13.6933 99.152 13.3147 99.248 12.984 99.44C12.664 99.6213 12.4133 99.8827 12.232 100.224C12.0507 100.555 11.96 100.949 11.96 101.408V101.792C11.96 102.261 12.0613 102.677 12.264 103.04C12.4773 103.392 12.7707 103.664 13.144 103.856C13.528 104.037 13.976 104.128 14.488 104.128C14.9467 104.128 15.3467 104.059 15.688 103.92C16.04 103.781 16.36 103.573 16.648 103.296L17.976 104.736C17.5813 105.184 17.0853 105.531 16.488 105.776C15.8907 106.011 15.2027 106.128 14.424 106.128ZM25.4778 97.264C26.1604 97.264 26.7684 97.4027 27.3018 97.68C27.8458 97.9467 28.2724 98.3627 28.5818 98.928C28.8911 99.4827 29.0458 100.197 29.0458 101.072V106H26.5498V101.456C26.5498 100.763 26.3951 100.251 26.0858 99.92C25.7871 99.5893 25.3604 99.424 24.8058 99.424C24.4111 99.424 24.0538 99.5093 23.7338 99.68C23.4244 99.84 23.1791 100.091 22.9978 100.432C22.8271 100.773 22.7418 101.211 22.7418 101.744V106H20.2458V97.392H22.6298V99.776L22.1818 99.056C22.4911 98.48 22.9338 98.0373 23.5098 97.728C24.0858 97.4187 24.7418 97.264 25.4778 97.264ZM35.0668 106.128C34.2561 106.128 33.5254 105.947 32.8748 105.584C32.2241 105.211 31.7068 104.693 31.3228 104.032C30.9494 103.371 30.7628 102.592 30.7628 101.696C30.7628 100.789 30.9494 100.005 31.3228 99.344C31.7068 98.6827 32.2241 98.1707 32.8748 97.808C33.5254 97.4453 34.2561 97.264 35.0668 97.264C35.7921 97.264 36.4268 97.424 36.9708 97.744C37.5148 98.064 37.9361 98.5493 38.2348 99.2C38.5334 99.8507 38.6828 100.683 38.6828 101.696C38.6828 102.699 38.5388 103.531 38.2508 104.192C37.9628 104.843 37.5468 105.328 37.0028 105.648C36.4694 105.968 35.8241 106.128 35.0668 106.128ZM35.4988 104.08C35.9041 104.08 36.2721 103.984 36.6028 103.792C36.9334 103.6 37.1948 103.328 37.3868 102.976C37.5894 102.613 37.6908 102.187 37.6908 101.696C37.6908 101.195 37.5894 100.768 37.3868 100.416C37.1948 100.064 36.9334 99.792 36.6028 99.6C36.2721 99.408 35.9041 99.312 35.4988 99.312C35.0828 99.312 34.7094 99.408 34.3788 99.6C34.0481 99.792 33.7814 100.064 33.5788 100.416C33.3868 100.768 33.2908 101.195 33.2908 101.696C33.2908 102.187 33.3868 102.613 33.5788 102.976C33.7814 103.328 34.0481 103.6 34.3788 103.792C34.7094 103.984 35.0828 104.08 35.4988 104.08ZM37.7548 106V104.24L37.8028 101.68L37.6428 99.136V94.128H40.1388V106H37.7548ZM58.0041 97.264C58.6868 97.264 59.2895 97.4027 59.8121 97.68C60.3455 97.9467 60.7615 98.3627 61.0601 98.928C61.3695 99.4827 61.5241 100.197 61.5241 101.072V106H59.0281V101.456C59.0281 100.763 58.8841 100.251 58.5961 99.92C58.3081 99.5893 57.9028 99.424 57.3801 99.424C57.0175 99.424 56.6921 99.5093 56.4041 99.68C56.1161 99.84 55.8921 100.085 55.7321 100.416C55.5721 100.747 55.4921 101.168 55.4921 101.68V106H52.9961V101.456C52.9961 100.763 52.8521 100.251 52.5641 99.92C52.2868 99.5893 51.8868 99.424 51.3641 99.424C51.0015 99.424 50.6761 99.5093 50.3881 99.68C50.1001 99.84 49.8761 100.085 49.7161 100.416C49.5561 100.747 49.4761 101.168 49.4761 101.68V106H46.9801V97.392H49.3641V99.744L48.9161 99.056C49.2148 98.4693 49.6361 98.0267 50.1801 97.728C50.7348 97.4187 51.3641 97.264 52.0681 97.264C52.8575 97.264 53.5455 97.4667 54.1321 97.872C54.7295 98.2667 55.1241 98.8747 55.3161 99.696L54.4361 99.456C54.7241 98.784 55.1828 98.2507 55.8121 97.856C56.4521 97.4613 57.1828 97.264 58.0041 97.264ZM68.0959 106.128C67.1145 106.128 66.2505 105.936 65.5039 105.552C64.7679 105.168 64.1972 104.645 63.7919 103.984C63.3865 103.312 63.1839 102.549 63.1839 101.696C63.1839 100.832 63.3812 100.069 63.7759 99.408C64.1812 98.736 64.7305 98.2133 65.4239 97.84C66.1172 97.456 66.9012 97.264 67.7759 97.264C68.6185 97.264 69.3759 97.4453 70.0479 97.808C70.7305 98.16 71.2692 98.672 71.6639 99.344C72.0585 100.005 72.2559 100.8 72.2559 101.728C72.2559 101.824 72.2505 101.936 72.2399 102.064C72.2292 102.181 72.2185 102.293 72.2079 102.4H65.2159V100.944H70.8959L69.9359 101.376C69.9359 100.928 69.8452 100.539 69.6639 100.208C69.4825 99.8773 69.2319 99.6213 68.9119 99.44C68.5919 99.248 68.2185 99.152 67.7919 99.152C67.3652 99.152 66.9865 99.248 66.6559 99.44C66.3359 99.6213 66.0852 99.8827 65.9039 100.224C65.7225 100.555 65.6319 100.949 65.6319 101.408V101.792C65.6319 102.261 65.7332 102.677 65.9359 103.04C66.1492 103.392 66.4425 103.664 66.8159 103.856C67.1999 104.037 67.6479 104.128 68.1599 104.128C68.6185 104.128 69.0185 104.059 69.3599 103.92C69.7119 103.781 70.0319 103.573 70.3199 103.296L71.6479 104.736C71.2532 105.184 70.7572 105.531 70.1599 105.776C69.5625 106.011 68.8745 106.128 68.0959 106.128ZM83.7289 106V104.32L83.5689 103.952V100.944C83.5689 100.411 83.4035 99.9947 83.0729 99.696C82.7529 99.3973 82.2569 99.248 81.5849 99.248C81.1262 99.248 80.6729 99.3227 80.2249 99.472C79.7875 99.6107 79.4142 99.8027 79.1049 100.048L78.2089 98.304C78.6782 97.9733 79.2435 97.7173 79.9049 97.536C80.5662 97.3547 81.2382 97.264 81.9209 97.264C83.2329 97.264 84.2515 97.5733 84.9769 98.192C85.7022 98.8107 86.0649 99.776 86.0649 101.088V106H83.7289ZM81.1049 106.128C80.4329 106.128 79.8569 106.016 79.3769 105.792C78.8969 105.557 78.5289 105.243 78.2729 104.848C78.0169 104.453 77.8889 104.011 77.8889 103.52C77.8889 103.008 78.0115 102.56 78.2569 102.176C78.5129 101.792 78.9129 101.493 79.4569 101.28C80.0009 101.056 80.7102 100.944 81.5849 100.944H83.8729V102.4H81.8569C81.2702 102.4 80.8649 102.496 80.6409 102.688C80.4275 102.88 80.3209 103.12 80.3209 103.408C80.3209 103.728 80.4435 103.984 80.6889 104.176C80.9449 104.357 81.2915 104.448 81.7289 104.448C82.1449 104.448 82.5182 104.352 82.8489 104.16C83.1795 103.957 83.4195 103.664 83.5689 103.28L83.9529 104.432C83.7715 104.987 83.4409 105.408 82.9609 105.696C82.4809 105.984 81.8622 106.128 81.1049 106.128ZM103.879 97.264C104.562 97.264 105.164 97.4027 105.687 97.68C106.22 97.9467 106.636 98.3627 106.935 98.928C107.244 99.4827 107.399 100.197 107.399 101.072V106H104.903V101.456C104.903 100.763 104.759 100.251 104.471 99.92C104.183 99.5893 103.778 99.424 103.255 99.424C102.892 99.424 102.567 99.5093 102.279 99.68C101.991 99.84 101.767 100.085 101.607 100.416C101.447 100.747 101.367 101.168 101.367 101.68V106H98.8711V101.456C98.8711 100.763 98.7271 100.251 98.4391 99.92C98.1618 99.5893 97.7618 99.424 97.2391 99.424C96.8765 99.424 96.5511 99.5093 96.2631 99.68C95.9751 99.84 95.7511 100.085 95.5911 100.416C95.4311 100.747 95.3511 101.168 95.3511 101.68V106H92.8551V97.392H95.2391V99.744L94.7911 99.056C95.0898 98.4693 95.5111 98.0267 96.0551 97.728C96.6098 97.4187 97.2391 97.264 97.9431 97.264C98.7325 97.264 99.4205 97.4667 100.007 97.872C100.604 98.2667 100.999 98.8747 101.191 99.696L100.311 99.456C100.599 98.784 101.058 98.2507 101.687 97.856C102.327 97.4613 103.058 97.264 103.879 97.264ZM113.971 106.128C112.99 106.128 112.126 105.936 111.379 105.552C110.643 105.168 110.072 104.645 109.667 103.984C109.262 103.312 109.059 102.549 109.059 101.696C109.059 100.832 109.256 100.069 109.651 99.408C110.056 98.736 110.606 98.2133 111.299 97.84C111.992 97.456 112.776 97.264 113.651 97.264C114.494 97.264 115.251 97.4453 115.923 97.808C116.606 98.16 117.144 98.672 117.539 99.344C117.934 100.005 118.131 100.8 118.131 101.728C118.131 101.824 118.126 101.936 118.115 102.064C118.104 102.181 118.094 102.293 118.083 102.4H111.091V100.944H116.771L115.811 101.376C115.811 100.928 115.72 100.539 115.539 100.208C115.358 99.8773 115.107 99.6213 114.787 99.44C114.467 99.248 114.094 99.152 113.667 99.152C113.24 99.152 112.862 99.248 112.531 99.44C112.211 99.6213 111.96 99.8827 111.779 100.224C111.598 100.555 111.507 100.949 111.507 101.408V101.792C111.507 102.261 111.608 102.677 111.811 103.04C112.024 103.392 112.318 103.664 112.691 103.856C113.075 104.037 113.523 104.128 114.035 104.128C114.494 104.128 114.894 104.059 115.235 103.92C115.587 103.781 115.907 103.573 116.195 103.296L117.523 104.736C117.128 105.184 116.632 105.531 116.035 105.776C115.438 106.011 114.75 106.128 113.971 106.128ZM122.689 106.128C121.953 106.128 121.243 106.043 120.561 105.872C119.889 105.691 119.355 105.467 118.961 105.2L119.793 103.408C120.187 103.653 120.651 103.856 121.185 104.016C121.729 104.165 122.262 104.24 122.785 104.24C123.361 104.24 123.766 104.171 124.001 104.032C124.246 103.893 124.369 103.701 124.369 103.456C124.369 103.253 124.273 103.104 124.081 103.008C123.899 102.901 123.654 102.821 123.345 102.768C123.035 102.715 122.694 102.661 122.321 102.608C121.958 102.555 121.59 102.485 121.217 102.4C120.843 102.304 120.502 102.165 120.193 101.984C119.883 101.803 119.633 101.557 119.441 101.248C119.259 100.939 119.169 100.539 119.169 100.048C119.169 99.504 119.323 99.024 119.633 98.608C119.953 98.192 120.411 97.8667 121.009 97.632C121.606 97.3867 122.321 97.264 123.153 97.264C123.739 97.264 124.337 97.328 124.945 97.456C125.553 97.584 126.059 97.7707 126.465 98.016L125.633 99.792C125.217 99.5467 124.795 99.3813 124.369 99.296C123.953 99.2 123.547 99.152 123.153 99.152C122.598 99.152 122.193 99.2267 121.937 99.376C121.681 99.5253 121.553 99.7173 121.553 99.952C121.553 100.165 121.643 100.325 121.825 100.432C122.017 100.539 122.267 100.624 122.577 100.688C122.886 100.752 123.222 100.811 123.585 100.864C123.958 100.907 124.331 100.976 124.705 101.072C125.078 101.168 125.414 101.307 125.713 101.488C126.022 101.659 126.273 101.899 126.465 102.208C126.657 102.507 126.753 102.901 126.753 103.392C126.753 103.925 126.593 104.4 126.273 104.816C125.953 105.221 125.489 105.541 124.881 105.776C124.283 106.011 123.553 106.128 122.689 106.128ZM131.189 106.128C130.453 106.128 129.743 106.043 129.061 105.872C128.389 105.691 127.855 105.467 127.461 105.2L128.293 103.408C128.687 103.653 129.151 103.856 129.685 104.016C130.229 104.165 130.762 104.24 131.285 104.24C131.861 104.24 132.266 104.171 132.501 104.032C132.746 103.893 132.869 103.701 132.869 103.456C132.869 103.253 132.773 103.104 132.581 103.008C132.399 102.901 132.154 102.821 131.845 102.768C131.535 102.715 131.194 102.661 130.821 102.608C130.458 102.555 130.09 102.485 129.717 102.4C129.343 102.304 129.002 102.165 128.693 101.984C128.383 101.803 128.133 101.557 127.941 101.248C127.759 100.939 127.669 100.539 127.669 100.048C127.669 99.504 127.823 99.024 128.133 98.608C128.453 98.192 128.911 97.8667 129.509 97.632C130.106 97.3867 130.821 97.264 131.653 97.264C132.239 97.264 132.837 97.328 133.445 97.456C134.053 97.584 134.559 97.7707 134.965 98.016L134.133 99.792C133.717 99.5467 133.295 99.3813 132.869 99.296C132.453 99.2 132.047 99.152 131.653 99.152C131.098 99.152 130.693 99.2267 130.437 99.376C130.181 99.5253 130.053 99.7173 130.053 99.952C130.053 100.165 130.143 100.325 130.325 100.432C130.517 100.539 130.767 100.624 131.077 100.688C131.386 100.752 131.722 100.811 132.085 100.864C132.458 100.907 132.831 100.976 133.205 101.072C133.578 101.168 133.914 101.307 134.213 101.488C134.522 101.659 134.773 101.899 134.965 102.208C135.157 102.507 135.253 102.901 135.253 103.392C135.253 103.925 135.093 104.4 134.773 104.816C134.453 105.221 133.989 105.541 133.381 105.776C132.783 106.011 132.053 106.128 131.189 106.128ZM142.073 106V104.32L141.913 103.952V100.944C141.913 100.411 141.747 99.9947 141.417 99.696C141.097 99.3973 140.601 99.248 139.929 99.248C139.47 99.248 139.017 99.3227 138.569 99.472C138.131 99.6107 137.758 99.8027 137.449 100.048L136.553 98.304C137.022 97.9733 137.587 97.7173 138.249 97.536C138.91 97.3547 139.582 97.264 140.265 97.264C141.577 97.264 142.595 97.5733 143.321 98.192C144.046 98.8107 144.409 99.776 144.409 101.088V106H142.073ZM139.449 106.128C138.777 106.128 138.201 106.016 137.721 105.792C137.241 105.557 136.873 105.243 136.617 104.848C136.361 104.453 136.233 104.011 136.233 103.52C136.233 103.008 136.355 102.56 136.601 102.176C136.857 101.792 137.257 101.493 137.801 101.28C138.345 101.056 139.054 100.944 139.929 100.944H142.217V102.4H140.201C139.614 102.4 139.209 102.496 138.985 102.688C138.771 102.88 138.665 103.12 138.665 103.408C138.665 103.728 138.787 103.984 139.033 104.176C139.289 104.357 139.635 104.448 140.073 104.448C140.489 104.448 140.862 104.352 141.193 104.16C141.523 103.957 141.763 103.664 141.913 103.28L142.297 104.432C142.115 104.987 141.785 105.408 141.305 105.696C140.825 105.984 140.206 106.128 139.449 106.128ZM150.778 109.232C149.967 109.232 149.183 109.131 148.426 108.928C147.679 108.736 147.055 108.443 146.554 108.048L147.546 106.256C147.909 106.555 148.367 106.789 148.922 106.96C149.487 107.141 150.042 107.232 150.586 107.232C151.471 107.232 152.111 107.035 152.506 106.64C152.911 106.245 153.114 105.659 153.114 104.88V103.584L153.274 101.424L153.242 99.248V97.392H155.61V104.56C155.61 106.16 155.194 107.339 154.362 108.096C153.53 108.853 152.335 109.232 150.778 109.232ZM150.394 105.584C149.594 105.584 148.869 105.413 148.218 105.072C147.578 104.72 147.061 104.235 146.666 103.616C146.282 102.987 146.09 102.256 146.09 101.424C146.09 100.581 146.282 99.8507 146.666 99.232C147.061 98.6027 147.578 98.1173 148.218 97.776C148.869 97.4347 149.594 97.264 150.394 97.264C151.119 97.264 151.759 97.4133 152.314 97.712C152.869 98 153.301 98.4533 153.61 99.072C153.919 99.68 154.074 100.464 154.074 101.424C154.074 102.373 153.919 103.157 153.61 103.776C153.301 104.384 152.869 104.837 152.314 105.136C151.759 105.435 151.119 105.584 150.394 105.584ZM150.89 103.536C151.327 103.536 151.717 103.451 152.058 103.28C152.399 103.099 152.666 102.848 152.858 102.528C153.05 102.208 153.146 101.84 153.146 101.424C153.146 100.997 153.05 100.629 152.858 100.32C152.666 100 152.399 99.7547 152.058 99.584C151.717 99.4027 151.327 99.312 150.89 99.312C150.453 99.312 150.063 99.4027 149.722 99.584C149.381 99.7547 149.109 100 148.906 100.32C148.714 100.629 148.618 100.997 148.618 101.424C148.618 101.84 148.714 102.208 148.906 102.528C149.109 102.848 149.381 103.099 149.722 103.28C150.063 103.451 150.453 103.536 150.89 103.536ZM162.205 106.128C161.224 106.128 160.36 105.936 159.613 105.552C158.877 105.168 158.307 104.645 157.901 103.984C157.496 103.312 157.293 102.549 157.293 101.696C157.293 100.832 157.491 100.069 157.885 99.408C158.291 98.736 158.84 98.2133 159.533 97.84C160.227 97.456 161.011 97.264 161.885 97.264C162.728 97.264 163.485 97.4453 164.157 97.808C164.84 98.16 165.379 98.672 165.773 99.344C166.168 100.005 166.365 100.8 166.365 101.728C166.365 101.824 166.36 101.936 166.349 102.064C166.339 102.181 166.328 102.293 166.317 102.4H159.325V100.944H165.005L164.045 101.376C164.045 100.928 163.955 100.539 163.773 100.208C163.592 99.8773 163.341 99.6213 163.021 99.44C162.701 99.248 162.328 99.152 161.901 99.152C161.475 99.152 161.096 99.248 160.765 99.44C160.445 99.6213 160.195 99.8827 160.013 100.224C159.832 100.555 159.741 100.949 159.741 101.408V101.792C159.741 102.261 159.843 102.677 160.045 103.04C160.259 103.392 160.552 103.664 160.925 103.856C161.309 104.037 161.757 104.128 162.269 104.128C162.728 104.128 163.128 104.059 163.469 103.92C163.821 103.781 164.141 103.573 164.429 103.296L165.757 104.736C165.363 105.184 164.867 105.531 164.269 105.776C163.672 106.011 162.984 106.128 162.205 106.128Z" fill="white"/>
</svg>
