<svg width="106" height="106" viewBox="0 0 106 106" fill="none" xmlns="http://www.w3.org/2000/svg">
<g filter="url(#filter0_dii_7_287)">
<circle cx="53" cy="23" r="23" fill="#9932CC"/>
<circle cx="53" cy="23" r="22.5" stroke="url(#paint0_linear_7_287)" style="mix-blend-mode:overlay"/>
</g>
<path d="M54 20H52V18H54M54 28H52V22H54M53 13C51.6868 13 50.3864 13.2587 49.1732 13.7612C47.9599 14.2638 46.8575 15.0003 45.9289 15.9289C44.0536 17.8043 43 20.3478 43 23C43 25.6522 44.0536 28.1957 45.9289 30.0711C46.8575 30.9997 47.9599 31.7362 49.1732 32.2388C50.3864 32.7413 51.6868 33 53 33C55.6522 33 58.1957 31.9464 60.0711 30.0711C61.9464 28.1957 63 25.6522 63 23C63 21.6868 62.7413 20.3864 62.2388 19.1732C61.7362 17.9599 60.9997 16.8575 60.0711 15.9289C59.1425 15.0003 58.0401 14.2638 56.8268 13.7612C55.6136 13.2587 54.3132 13 53 13Z" fill="url(#paint1_linear_7_287)" style="mix-blend-mode:overlay"/>
<defs>
<filter id="filter0_dii_7_287" x="0" y="-1" width="106" height="107" filterUnits="userSpaceOnUse" color-interpolation-filters="sRGB">
<feFlood flood-opacity="0" result="BackgroundImageFix"/>
<feColorMatrix in="SourceAlpha" type="matrix" values="0 0 0 0 0 0 0 0 0 0 0 0 0 0 0 0 0 0 127 0" result="hardAlpha"/>
<feOffset dy="30"/>
<feGaussianBlur stdDeviation="15"/>
<feComposite in2="hardAlpha" operator="out"/>
<feColorMatrix type="matrix" values="0 0 0 0 0 0 0 0 0 0 0 0 0 0 0 0 0 0 0.6 0"/>
<feBlend mode="normal" in2="BackgroundImageFix" result="effect1_dropShadow_7_287"/>
<feBlend mode="normal" in="SourceGraphic" in2="effect1_dropShadow_7_287" result="shape"/>
<feColorMatrix in="SourceAlpha" type="matrix" values="0 0 0 0 0 0 0 0 0 0 0 0 0 0 0 0 0 0 127 0" result="hardAlpha"/>
<feOffset/>
<feGaussianBlur stdDeviation="2.5"/>
<feComposite in2="hardAlpha" operator="arithmetic" k2="-1" k3="1"/>
<feColorMatrix type="matrix" values="0 0 0 0 1 0 0 0 0 0.675 0 0 0 0 0.892944 0 0 0 1 0"/>
<feBlend mode="overlay" in2="shape" result="effect2_innerShadow_7_287"/>
<feColorMatrix in="SourceAlpha" type="matrix" values="0 0 0 0 0 0 0 0 0 0 0 0 0 0 0 0 0 0 127 0" result="hardAlpha"/>
<feOffset dy="-1"/>
<feGaussianBlur stdDeviation="4"/>
<feComposite in2="hardAlpha" operator="arithmetic" k2="-1" k3="1"/>
<feColorMatrix type="matrix" values="0 0 0 0 0.576623 0 0 0 0 0.460156 0 0 0 0 0.7125 0 0 0 1 0"/>
<feBlend mode="overlay" in2="effect2_innerShadow_7_287" result="effect3_innerShadow_7_287"/>
</filter>
<linearGradient id="paint0_linear_7_287" x1="47.3937" y1="31.9063" x2="67.9468" y2="2.79559" gradientUnits="userSpaceOnUse">
<stop stop-opacity="0.5"/>
<stop offset="1" stop-color="white" stop-opacity="0.5"/>
</linearGradient>
<linearGradient id="paint1_linear_7_287" x1="53" y1="13" x2="53" y2="33" gradientUnits="userSpaceOnUse">
<stop stop-color="white" stop-opacity="0.8"/>
<stop offset="1" stop-color="white" stop-opacity="0.3"/>
</linearGradient>
</defs>
</svg>
