<svg width="360" height="46" viewBox="0 0 360 46" fill="none" xmlns="http://www.w3.org/2000/svg">
<path d="M24.0259 4.4H31.8019V38H24.0259V4.4ZM8.76189 38H0.985892V4.4H8.76189V38ZM24.6019 24.224H8.18589V17.648H24.6019V24.224ZM39.2235 38V12.176H46.7115V38H39.2235ZM42.9675 8.576C41.5915 8.576 40.4715 8.176 39.6075 7.376C38.7435 6.576 38.3115 5.584 38.3115 4.4C38.3115 3.216 38.7435 2.224 39.6075 1.424C40.4715 0.623998 41.5915 0.223997 42.9675 0.223997C44.3435 0.223997 45.4635 0.607998 46.3275 1.376C47.1915 2.112 47.6235 3.072 47.6235 4.256C47.6235 5.504 47.1915 6.544 46.3275 7.376C45.4955 8.176 44.3755 8.576 42.9675 8.576ZM52.365 45.392L55.533 33.872L56.589 38.192C55.213 38.192 54.077 37.792 53.181 36.992C52.317 36.192 51.885 35.088 51.885 33.68C51.885 32.272 52.333 31.152 53.229 30.32C54.125 29.488 55.229 29.072 56.541 29.072C57.885 29.072 58.989 29.504 59.853 30.368C60.717 31.2 61.149 32.304 61.149 33.68C61.149 34.096 61.117 34.512 61.053 34.928C60.989 35.312 60.861 35.792 60.669 36.368C60.509 36.912 60.237 37.616 59.853 38.48L57.117 45.392H52.365ZM80.3453 38V4.4H88.1213V38H80.3453ZM94.2713 18.32L97.4393 6.8L98.4953 11.168C97.1193 11.168 95.9833 10.768 95.0873 9.968C94.2233 9.136 93.7913 8.016 93.7913 6.608C93.7913 5.232 94.2393 4.128 95.1353 3.296C96.0313 2.432 97.1353 2 98.4473 2C99.7913 2 100.895 2.432 101.759 3.296C102.623 4.128 103.055 5.232 103.055 6.608C103.055 7.024 103.023 7.44 102.959 7.856C102.927 8.24 102.815 8.704 102.623 9.248C102.463 9.792 102.191 10.512 101.807 11.408L99.0233 18.32H94.2713ZM141.202 11.792C143.25 11.792 145.058 12.208 146.626 13.04C148.226 13.84 149.474 15.088 150.37 16.784C151.298 18.448 151.762 20.592 151.762 23.216V38H144.274V24.368C144.274 22.288 143.842 20.752 142.978 19.76C142.114 18.768 140.898 18.272 139.33 18.272C138.242 18.272 137.266 18.528 136.402 19.04C135.538 19.52 134.866 20.256 134.386 21.248C133.906 22.24 133.666 23.504 133.666 25.04V38H126.178V24.368C126.178 22.288 125.746 20.752 124.882 19.76C124.05 18.768 122.85 18.272 121.282 18.272C120.194 18.272 119.218 18.528 118.354 19.04C117.49 19.52 116.818 20.256 116.338 21.248C115.858 22.24 115.618 23.504 115.618 25.04V38H108.13V12.176H115.282V19.232L113.938 17.168C114.834 15.408 116.098 14.08 117.73 13.184C119.394 12.256 121.282 11.792 123.394 11.792C125.762 11.792 127.826 12.4 129.586 13.616C131.378 14.8 132.562 16.624 133.138 19.088L130.498 18.368C131.362 16.352 132.738 14.752 134.626 13.568C136.546 12.384 138.738 11.792 141.202 11.792ZM172.595 38V4.4H187.139C190.147 4.4 192.739 4.896 194.915 5.888C197.091 6.848 198.771 8.24 199.955 10.064C201.139 11.888 201.731 14.064 201.731 16.592C201.731 19.088 201.139 21.248 199.955 23.072C198.771 24.896 197.091 26.304 194.915 27.296C192.739 28.256 190.147 28.736 187.139 28.736H176.915L180.371 25.232V38H172.595ZM180.371 26.096L176.915 22.4H186.707C189.107 22.4 190.899 21.888 192.083 20.864C193.267 19.84 193.859 18.416 193.859 16.592C193.859 14.736 193.267 13.296 192.083 12.272C190.899 11.248 189.107 10.736 186.707 10.736H176.915L180.371 7.04V26.096ZM222.36 38V32.96L221.88 31.856V22.832C221.88 21.232 221.384 19.984 220.392 19.088C219.432 18.192 217.944 17.744 215.928 17.744C214.552 17.744 213.192 17.968 211.848 18.416C210.536 18.832 209.416 19.408 208.488 20.144L205.8 14.912C207.208 13.92 208.904 13.152 210.888 12.608C212.872 12.064 214.888 11.792 216.936 11.792C220.872 11.792 223.928 12.72 226.104 14.576C228.28 16.432 229.368 19.328 229.368 23.264V38H222.36ZM214.488 38.384C212.472 38.384 210.744 38.048 209.304 37.376C207.864 36.672 206.76 35.728 205.992 34.544C205.224 33.36 204.84 32.032 204.84 30.56C204.84 29.024 205.208 27.68 205.944 26.528C206.712 25.376 207.912 24.48 209.544 23.84C211.176 23.168 213.304 22.832 215.928 22.832H222.792V27.2H216.744C214.984 27.2 213.768 27.488 213.096 28.064C212.456 28.64 212.136 29.36 212.136 30.224C212.136 31.184 212.504 31.952 213.24 32.528C214.008 33.072 215.048 33.344 216.36 33.344C217.608 33.344 218.728 33.056 219.72 32.48C220.712 31.872 221.432 30.992 221.88 29.84L223.032 33.296C222.488 34.96 221.496 36.224 220.056 37.088C218.616 37.952 216.76 38.384 214.488 38.384ZM246.705 38.384C243.665 38.384 241.297 37.616 239.601 36.08C237.905 34.512 237.057 32.192 237.057 29.12V6.464H244.545V29.024C244.545 30.112 244.833 30.96 245.409 31.568C245.985 32.144 246.769 32.432 247.761 32.432C248.945 32.432 249.953 32.112 250.785 31.472L252.801 36.752C252.033 37.296 251.105 37.712 250.017 38C248.961 38.256 247.857 38.384 246.705 38.384ZM233.073 18.512V12.752H250.977V18.512H233.073ZM257.005 38V12.176H264.157V19.472L263.149 17.36C263.917 15.536 265.149 14.16 266.845 13.232C268.541 12.272 270.605 11.792 273.037 11.792V18.704C272.717 18.672 272.429 18.656 272.173 18.656C271.917 18.624 271.645 18.608 271.357 18.608C269.309 18.608 267.645 19.2 266.365 20.384C265.117 21.536 264.493 23.344 264.493 25.808V38H257.005ZM277.536 38V12.176H285.024V38H277.536ZM281.28 8.576C279.904 8.576 278.784 8.176 277.92 7.376C277.056 6.576 276.624 5.584 276.624 4.4C276.624 3.216 277.056 2.224 277.92 1.424C278.784 0.623998 279.904 0.223997 281.28 0.223997C282.656 0.223997 283.776 0.607998 284.64 1.376C285.504 2.112 285.936 3.072 285.936 4.256C285.936 5.504 285.504 6.544 284.64 7.376C283.808 8.176 282.688 8.576 281.28 8.576ZM304.454 38.384C301.67 38.384 299.19 37.824 297.014 36.704C294.838 35.552 293.126 33.968 291.878 31.952C290.662 29.936 290.054 27.648 290.054 25.088C290.054 22.496 290.662 20.208 291.878 18.224C293.126 16.208 294.838 14.64 297.014 13.52C299.19 12.368 301.67 11.792 304.454 11.792C307.174 11.792 309.542 12.368 311.558 13.52C313.574 14.64 315.062 16.256 316.022 18.368L310.214 21.488C309.542 20.272 308.694 19.376 307.67 18.8C306.678 18.224 305.59 17.936 304.406 17.936C303.126 17.936 301.974 18.224 300.95 18.8C299.926 19.376 299.11 20.192 298.502 21.248C297.926 22.304 297.638 23.584 297.638 25.088C297.638 26.592 297.926 27.872 298.502 28.928C299.11 29.984 299.926 30.8 300.95 31.376C301.974 31.952 303.126 32.24 304.406 32.24C305.59 32.24 306.678 31.968 307.67 31.424C308.694 30.848 309.542 29.936 310.214 28.688L316.022 31.856C315.062 33.936 313.574 35.552 311.558 36.704C309.542 37.824 307.174 38.384 304.454 38.384ZM326.384 32.72L326.576 23.6L338.624 12.176H347.552L335.984 23.936L332.096 27.104L326.384 32.72ZM320.192 38V2.384H327.68V38H320.192ZM339.44 38L330.704 27.152L335.408 21.344L348.512 38H339.44ZM352.408 26.336L350.92 4.4H359.848L358.36 26.336H352.408ZM355.384 38.384C354.04 38.384 352.936 37.952 352.072 37.088C351.208 36.224 350.776 35.2 350.776 34.016C350.776 32.8 351.208 31.792 352.072 30.992C352.936 30.16 354.04 29.744 355.384 29.744C356.76 29.744 357.864 30.16 358.696 30.992C359.56 31.792 359.992 32.8 359.992 34.016C359.992 35.2 359.56 36.224 358.696 37.088C357.864 37.952 356.76 38.384 355.384 38.384Z" fill="white"/>
</svg>
