<svg width="253" height="19" viewBox="0 0 253 19" fill="none" xmlns="http://www.w3.org/2000/svg">
<path d="M0.917614 18V0.545454H7.1392C8.49716 0.545454 9.62216 0.792613 10.5142 1.28693C11.4063 1.78125 12.0739 2.45739 12.517 3.31534C12.9602 4.16761 13.1818 5.12784 13.1818 6.19602C13.1818 7.26989 12.9574 8.2358 12.5085 9.09375C12.0653 9.94602 11.3949 10.6222 10.4972 11.1222C9.60511 11.6165 8.48295 11.8636 7.13068 11.8636H2.85227V9.63068H6.89205C7.75 9.63068 8.44602 9.48295 8.98011 9.1875C9.5142 8.88636 9.90625 8.47727 10.1562 7.96023C10.4062 7.44318 10.5312 6.85511 10.5312 6.19602C10.5312 5.53693 10.4062 4.9517 10.1562 4.44034C9.90625 3.92898 9.51136 3.52841 8.97159 3.23864C8.4375 2.94886 7.73295 2.80398 6.85795 2.80398H3.55114V18H0.917614ZM15.892 18H13.0966L19.3778 0.545454H22.4205L28.7017 18H25.9062L20.9716 3.71591H20.8352L15.892 18ZM16.3608 11.1648H25.429V13.3807H16.3608V11.1648ZM28.299 2.8125V0.545454H41.8075V2.8125H36.3615V18H33.7365V2.8125H28.299ZM44.7926 18V0.545454H51.0142C52.3665 0.545454 53.4886 0.778409 54.3807 1.24432C55.2784 1.71023 55.9489 2.35511 56.392 3.17898C56.8352 3.99716 57.0568 4.94318 57.0568 6.01705C57.0568 7.08523 56.8324 8.02557 56.3835 8.83807C55.9403 9.64489 55.2699 10.2727 54.3722 10.7216C53.4801 11.1705 52.358 11.3949 51.0057 11.3949H46.2926V9.12784H50.767C51.6193 9.12784 52.3125 9.00568 52.8466 8.76136C53.3864 8.51705 53.7812 8.16193 54.0312 7.69602C54.2812 7.23011 54.4062 6.67045 54.4062 6.01705C54.4062 5.35795 54.2784 4.78693 54.0227 4.30398C53.7727 3.82102 53.3778 3.4517 52.8381 3.19602C52.304 2.93466 51.6023 2.80398 50.733 2.80398H47.4261V18H44.7926ZM53.4091 10.125L57.7216 18H54.7216L50.4943 10.125H53.4091ZM62.8949 0.545454V18H60.2614V0.545454H62.8949ZM81.2273 6.22159H78.5682C78.4659 5.65341 78.2756 5.15341 77.9972 4.72159C77.7188 4.28977 77.3778 3.9233 76.9744 3.62216C76.571 3.32102 76.1193 3.09375 75.6193 2.94034C75.125 2.78693 74.5994 2.71023 74.0426 2.71023C73.0369 2.71023 72.1364 2.96307 71.3409 3.46875C70.5511 3.97443 69.9261 4.71591 69.4659 5.69318C69.0114 6.67045 68.7841 7.86364 68.7841 9.27273C68.7841 10.6932 69.0114 11.892 69.4659 12.8693C69.9261 13.8466 70.554 14.5852 71.3494 15.0852C72.1449 15.5852 73.0398 15.8352 74.0341 15.8352C74.5852 15.8352 75.108 15.7614 75.6023 15.6136C76.1023 15.4602 76.554 15.2358 76.9574 14.9403C77.3608 14.6449 77.7017 14.2841 77.9801 13.858C78.2642 13.4261 78.4602 12.9318 78.5682 12.375L81.2273 12.3835C81.0852 13.2415 80.8097 14.0312 80.4006 14.7528C79.9972 15.4688 79.4773 16.0881 78.8409 16.6108C78.2102 17.1278 77.4886 17.5284 76.6761 17.8125C75.8636 18.0966 74.9773 18.2386 74.017 18.2386C72.5057 18.2386 71.1591 17.8807 69.9773 17.1648C68.7955 16.4432 67.8636 15.4119 67.1818 14.071C66.5057 12.7301 66.1676 11.1307 66.1676 9.27273C66.1676 7.40909 66.5085 5.80966 67.1903 4.47443C67.8722 3.13352 68.804 2.10511 69.9858 1.3892C71.1676 0.667613 72.5114 0.306818 74.017 0.306818C74.9432 0.306818 75.8068 0.440341 76.608 0.707386C77.4148 0.96875 78.1392 1.35511 78.7812 1.86648C79.4233 2.37216 79.9545 2.99148 80.375 3.72443C80.7955 4.4517 81.0795 5.28409 81.2273 6.22159ZM84.3786 18V0.545454H87.0121V8.88068H87.2251L94.5462 0.545454H97.8615L90.8217 8.40341L97.8871 18H94.7166L89.0746 10.2017L87.0121 12.571V18H84.3786ZM108.142 18H105.347L111.628 0.545454H114.67L120.952 18H118.156L113.222 3.71591H113.085L108.142 18ZM108.611 11.1648H117.679V13.3807H108.611V11.1648ZM123.472 18V0.545454H126.106V8.88068H126.319L133.64 0.545454H136.955L129.915 8.40341L136.981 18H133.81L128.168 10.2017L126.106 12.571V18H123.472ZM139.41 18V0.545454H142.043V8.13068H150.745V0.545454H153.387V18H150.745V10.3892H142.043V18H139.41ZM158.697 18H155.901L162.183 0.545454H165.225L171.506 18H168.711L163.776 3.71591H163.64L158.697 18ZM159.165 11.1648H168.234V13.3807H159.165V11.1648ZM174.027 0.545454H177.223L182.78 14.1136H182.984L188.541 0.545454H191.737V18H189.232V5.36932H189.07L183.922 17.9744H181.842L176.695 5.36079H176.533V18H174.027V0.545454ZM198.2 0.545454V18H195.566V0.545454H198.2ZM217.197 9.27273C217.197 11.1364 216.856 12.7386 216.174 14.0795C215.492 15.4148 214.558 16.4432 213.37 17.1648C212.188 17.8807 210.844 18.2386 209.339 18.2386C207.827 18.2386 206.478 17.8807 205.29 17.1648C204.109 16.4432 203.177 15.4119 202.495 14.071C201.813 12.7301 201.472 11.1307 201.472 9.27273C201.472 7.40909 201.813 5.80966 202.495 4.47443C203.177 3.13352 204.109 2.10511 205.29 1.3892C206.478 0.667613 207.827 0.306818 209.339 0.306818C210.844 0.306818 212.188 0.667613 213.37 1.3892C214.558 2.10511 215.492 3.13352 216.174 4.47443C216.856 5.80966 217.197 7.40909 217.197 9.27273ZM214.589 9.27273C214.589 7.85227 214.359 6.65625 213.898 5.68466C213.444 4.70739 212.819 3.96875 212.023 3.46875C211.234 2.96307 210.339 2.71023 209.339 2.71023C208.333 2.71023 207.435 2.96307 206.646 3.46875C205.856 3.96875 205.231 4.70739 204.771 5.68466C204.316 6.65625 204.089 7.85227 204.089 9.27273C204.089 10.6932 204.316 11.892 204.771 12.8693C205.231 13.8409 205.856 14.5795 206.646 15.0852C207.435 15.5852 208.333 15.8352 209.339 15.8352C210.339 15.8352 211.234 15.5852 212.023 15.0852C212.819 14.5795 213.444 13.8409 213.898 12.8693C214.359 11.892 214.589 10.6932 214.589 9.27273ZM232.293 6.05966C232.128 5.54261 231.906 5.07955 231.628 4.67045C231.355 4.25568 231.028 3.90341 230.648 3.61364C230.267 3.31818 229.832 3.09375 229.344 2.94034C228.861 2.78693 228.33 2.71023 227.75 2.71023C226.767 2.71023 225.881 2.96307 225.091 3.46875C224.301 3.97443 223.676 4.71591 223.216 5.69318C222.761 6.66477 222.534 7.85511 222.534 9.2642C222.534 10.679 222.764 11.875 223.224 12.8523C223.685 13.8295 224.315 14.571 225.116 15.0767C225.918 15.5824 226.83 15.8352 227.852 15.8352C228.801 15.8352 229.628 15.642 230.332 15.2557C231.043 14.8693 231.591 14.3239 231.977 13.6193C232.369 12.9091 232.565 12.0739 232.565 11.1136L233.247 11.2415H228.253V9.06818H235.114V11.054C235.114 12.5199 234.801 13.7926 234.176 14.8722C233.557 15.946 232.699 16.7756 231.602 17.3608C230.511 17.946 229.261 18.2386 227.852 18.2386C226.273 18.2386 224.886 17.875 223.693 17.1477C222.506 16.4205 221.58 15.3892 220.915 14.054C220.25 12.7131 219.918 11.1222 219.918 9.28125C219.918 7.8892 220.111 6.6392 220.497 5.53125C220.884 4.4233 221.426 3.48295 222.125 2.71023C222.83 1.93182 223.656 1.33807 224.605 0.928977C225.56 0.514204 226.602 0.306818 227.733 0.306818C228.676 0.306818 229.554 0.446022 230.366 0.724431C231.185 1.00284 231.912 1.39773 232.548 1.90909C233.19 2.42045 233.722 3.02841 234.142 3.73295C234.563 4.43182 234.847 5.20739 234.994 6.05966H232.293ZM249.681 0.545454H252.323V12.0256C252.323 13.2472 252.036 14.3295 251.462 15.2727C250.888 16.2102 250.082 16.9489 249.042 17.4886C248.002 18.0227 246.783 18.2898 245.386 18.2898C243.994 18.2898 242.778 18.0227 241.738 17.4886C240.698 16.9489 239.891 16.2102 239.317 15.2727C238.744 14.3295 238.457 13.2472 238.457 12.0256V0.545454H241.09V11.8125C241.09 12.6023 241.263 13.304 241.61 13.9176C241.962 14.5312 242.46 15.0142 243.102 15.3665C243.744 15.7131 244.505 15.8864 245.386 15.8864C246.272 15.8864 247.036 15.7131 247.678 15.3665C248.326 15.0142 248.82 14.5312 249.161 13.9176C249.508 13.304 249.681 12.6023 249.681 11.8125V0.545454Z" fill="#9932CC"/>
</svg>
