<svg width="582" height="140" viewBox="0 0 582 140" fill="none" xmlns="http://www.w3.org/2000/svg">
<path d="M27.0259 13.4H34.8019V47H27.0259V13.4ZM11.7619 47H3.98589V13.4H11.7619V47ZM27.6019 33.224H11.1859V26.648H27.6019V33.224ZM42.2235 47V21.176H49.7115V47H42.2235ZM45.9675 17.576C44.5915 17.576 43.4715 17.176 42.6075 16.376C41.7435 15.576 41.3115 14.584 41.3115 13.4C41.3115 12.216 41.7435 11.224 42.6075 10.424C43.4715 9.624 44.5915 9.224 45.9675 9.224C47.3435 9.224 48.4635 9.608 49.3275 10.376C50.1915 11.112 50.6235 12.072 50.6235 13.256C50.6235 14.504 50.1915 15.544 49.3275 16.376C48.4955 17.176 47.3755 17.576 45.9675 17.576ZM55.365 54.392L58.533 42.872L59.589 47.192C58.213 47.192 57.077 46.792 56.181 45.992C55.317 45.192 54.885 44.088 54.885 42.68C54.885 41.272 55.333 40.152 56.229 39.32C57.125 38.488 58.229 38.072 59.541 38.072C60.885 38.072 61.989 38.504 62.853 39.368C63.717 40.2 64.149 41.304 64.149 42.68C64.149 43.096 64.117 43.512 64.053 43.928C63.989 44.312 63.861 44.792 63.669 45.368C63.509 45.912 63.237 46.616 62.853 47.48L60.117 54.392H55.365ZM83.3453 47V13.4H91.1213V47H83.3453ZM97.2713 27.32L100.439 15.8L101.495 20.168C100.119 20.168 98.9833 19.768 98.0873 18.968C97.2233 18.136 96.7913 17.016 96.7913 15.608C96.7913 14.232 97.2393 13.128 98.1353 12.296C99.0313 11.432 100.135 11 101.447 11C102.791 11 103.895 11.432 104.759 12.296C105.623 13.128 106.055 14.232 106.055 15.608C106.055 16.024 106.023 16.44 105.959 16.856C105.927 17.24 105.815 17.704 105.623 18.248C105.463 18.792 105.191 19.512 104.807 20.408L102.023 27.32H97.2713ZM144.202 20.792C146.25 20.792 148.058 21.208 149.626 22.04C151.226 22.84 152.474 24.088 153.37 25.784C154.298 27.448 154.762 29.592 154.762 32.216V47H147.274V33.368C147.274 31.288 146.842 29.752 145.978 28.76C145.114 27.768 143.898 27.272 142.33 27.272C141.242 27.272 140.266 27.528 139.402 28.04C138.538 28.52 137.866 29.256 137.386 30.248C136.906 31.24 136.666 32.504 136.666 34.04V47H129.178V33.368C129.178 31.288 128.746 29.752 127.882 28.76C127.05 27.768 125.85 27.272 124.282 27.272C123.194 27.272 122.218 27.528 121.354 28.04C120.49 28.52 119.818 29.256 119.338 30.248C118.858 31.24 118.618 32.504 118.618 34.04V47H111.13V21.176H118.282V28.232L116.938 26.168C117.834 24.408 119.098 23.08 120.73 22.184C122.394 21.256 124.282 20.792 126.394 20.792C128.762 20.792 130.826 21.4 132.586 22.616C134.378 23.8 135.562 25.624 136.138 28.088L133.498 27.368C134.362 25.352 135.738 23.752 137.626 22.568C139.546 21.384 141.738 20.792 144.202 20.792ZM175.595 47V13.4H190.139C193.147 13.4 195.739 13.896 197.915 14.888C200.091 15.848 201.771 17.24 202.955 19.064C204.139 20.888 204.731 23.064 204.731 25.592C204.731 28.088 204.139 30.248 202.955 32.072C201.771 33.896 200.091 35.304 197.915 36.296C195.739 37.256 193.147 37.736 190.139 37.736H179.915L183.371 34.232V47H175.595ZM183.371 35.096L179.915 31.4H189.707C192.107 31.4 193.899 30.888 195.083 29.864C196.267 28.84 196.859 27.416 196.859 25.592C196.859 23.736 196.267 22.296 195.083 21.272C193.899 20.248 192.107 19.736 189.707 19.736H179.915L183.371 16.04V35.096ZM225.36 47V41.96L224.88 40.856V31.832C224.88 30.232 224.384 28.984 223.392 28.088C222.432 27.192 220.944 26.744 218.928 26.744C217.552 26.744 216.192 26.968 214.848 27.416C213.536 27.832 212.416 28.408 211.488 29.144L208.8 23.912C210.208 22.92 211.904 22.152 213.888 21.608C215.872 21.064 217.888 20.792 219.936 20.792C223.872 20.792 226.928 21.72 229.104 23.576C231.28 25.432 232.368 28.328 232.368 32.264V47H225.36ZM217.488 47.384C215.472 47.384 213.744 47.048 212.304 46.376C210.864 45.672 209.76 44.728 208.992 43.544C208.224 42.36 207.84 41.032 207.84 39.56C207.84 38.024 208.208 36.68 208.944 35.528C209.712 34.376 210.912 33.48 212.544 32.84C214.176 32.168 216.304 31.832 218.928 31.832H225.792V36.2H219.744C217.984 36.2 216.768 36.488 216.096 37.064C215.456 37.64 215.136 38.36 215.136 39.224C215.136 40.184 215.504 40.952 216.24 41.528C217.008 42.072 218.048 42.344 219.36 42.344C220.608 42.344 221.728 42.056 222.72 41.48C223.712 40.872 224.432 39.992 224.88 38.84L226.032 42.296C225.488 43.96 224.496 45.224 223.056 46.088C221.616 46.952 219.76 47.384 217.488 47.384ZM249.705 47.384C246.665 47.384 244.297 46.616 242.601 45.08C240.905 43.512 240.057 41.192 240.057 38.12V15.464H247.545V38.024C247.545 39.112 247.833 39.96 248.409 40.568C248.985 41.144 249.769 41.432 250.761 41.432C251.945 41.432 252.953 41.112 253.785 40.472L255.801 45.752C255.033 46.296 254.105 46.712 253.017 47C251.961 47.256 250.857 47.384 249.705 47.384ZM236.073 27.512V21.752H253.977V27.512H236.073ZM260.005 47V21.176H267.157V28.472L266.149 26.36C266.917 24.536 268.149 23.16 269.845 22.232C271.541 21.272 273.605 20.792 276.037 20.792V27.704C275.717 27.672 275.429 27.656 275.173 27.656C274.917 27.624 274.645 27.608 274.357 27.608C272.309 27.608 270.645 28.2 269.365 29.384C268.117 30.536 267.493 32.344 267.493 34.808V47H260.005ZM280.536 47V21.176H288.024V47H280.536ZM284.28 17.576C282.904 17.576 281.784 17.176 280.92 16.376C280.056 15.576 279.624 14.584 279.624 13.4C279.624 12.216 280.056 11.224 280.92 10.424C281.784 9.624 282.904 9.224 284.28 9.224C285.656 9.224 286.776 9.608 287.64 10.376C288.504 11.112 288.936 12.072 288.936 13.256C288.936 14.504 288.504 15.544 287.64 16.376C286.808 17.176 285.688 17.576 284.28 17.576ZM307.454 47.384C304.67 47.384 302.19 46.824 300.014 45.704C297.838 44.552 296.126 42.968 294.878 40.952C293.662 38.936 293.054 36.648 293.054 34.088C293.054 31.496 293.662 29.208 294.878 27.224C296.126 25.208 297.838 23.64 300.014 22.52C302.19 21.368 304.67 20.792 307.454 20.792C310.174 20.792 312.542 21.368 314.558 22.52C316.574 23.64 318.062 25.256 319.022 27.368L313.214 30.488C312.542 29.272 311.694 28.376 310.67 27.8C309.678 27.224 308.59 26.936 307.406 26.936C306.126 26.936 304.974 27.224 303.95 27.8C302.926 28.376 302.11 29.192 301.502 30.248C300.926 31.304 300.638 32.584 300.638 34.088C300.638 35.592 300.926 36.872 301.502 37.928C302.11 38.984 302.926 39.8 303.95 40.376C304.974 40.952 306.126 41.24 307.406 41.24C308.59 41.24 309.678 40.968 310.67 40.424C311.694 39.848 312.542 38.936 313.214 37.688L319.022 40.856C318.062 42.936 316.574 44.552 314.558 45.704C312.542 46.824 310.174 47.384 307.454 47.384ZM329.384 41.72L329.576 32.6L341.624 21.176H350.552L338.984 32.936L335.096 36.104L329.384 41.72ZM323.192 47V11.384H330.68V47H323.192ZM342.44 47L333.704 36.152L338.408 30.344L351.512 47H342.44ZM355.408 35.336L353.92 13.4H362.848L361.36 35.336H355.408ZM358.384 47.384C357.04 47.384 355.936 46.952 355.072 46.088C354.208 45.224 353.776 44.2 353.776 43.016C353.776 41.8 354.208 40.792 355.072 39.992C355.936 39.16 357.04 38.744 358.384 38.744C359.76 38.744 360.864 39.16 361.696 39.992C362.56 40.792 362.992 41.8 362.992 43.016C362.992 44.2 362.56 45.224 361.696 46.088C360.864 46.952 359.76 47.384 358.384 47.384Z" fill="white"/>
<path d="M29.3925 102H18.2831V100.781H21.4238L17.9081 91.6875H8.29877L4.83002 100.781H7.26752C7.45502 100.781 7.64252 100.797 7.83002 100.828C8.23627 100.922 8.43939 101.312 8.43939 102H0.00189209V100.781H2.95502L13.3613 73.875H15.8456L26.7206 100.781H28.2206C28.3769 100.781 28.5331 100.797 28.6894 100.828C29.1581 100.891 29.3925 101.281 29.3925 102ZM17.3456 90.3281L13.08 79.2188L8.81439 90.3281H17.3456ZM67.1738 102H66.5644C66.1894 102 65.8769 101.938 65.6269 101.812C65.1894 101.562 64.6581 100.578 64.0331 98.8594L58.9706 85.125L52.83 102.141H52.2675C51.9238 102.141 51.6269 102.078 51.3769 101.953C50.8456 101.703 50.2519 100.672 49.5956 98.8594L40.83 75.0938H38.205V73.875H49.5019V75.0938H45.705L53.4394 96.5156L58.2206 83.0156L54.8456 73.875H64.0331V75.0938H60.2831L67.6894 96.375L74.7675 75.0938H71.0175V73.875H78.6581V75.0938H76.3144L67.1738 102ZM90.4238 82.5938C89.83 82.5938 89.2831 82.7031 88.7831 82.9219C86.5956 83.8906 85.4394 86.375 85.3144 90.375L89.4863 90.4688C90.7988 90.5312 91.8144 90.4688 92.5331 90.2812C93.8144 89.9375 94.455 89 94.455 87.4688C94.455 86.8438 94.3769 86.2344 94.2206 85.6406C93.6894 83.6094 92.4238 82.5938 90.4238 82.5938ZM98.8144 97.3594C98.6269 97.7969 98.4081 98.2344 98.1581 98.6719C96.5956 101.203 94.0488 102.469 90.5175 102.469C88.4238 102.469 86.5488 101.969 84.8925 100.969C81.8613 99.1562 80.3456 96.1719 80.3456 92.0156C80.3456 89.6094 80.9238 87.5 82.08 85.6875C83.8925 82.8438 86.6581 81.4219 90.3769 81.4219C92.3456 81.4219 94.1113 81.8281 95.6738 82.6406C98.0175 83.8594 99.1894 85.6406 99.1894 87.9844C99.1894 88.8906 98.9394 89.6406 98.4394 90.2344C97.3769 91.3594 94.705 91.875 90.4238 91.7812L85.3144 91.6875C85.3144 91.7188 85.3144 91.75 85.3144 91.7812C85.4706 98.0312 87.5019 101.156 91.4081 101.156C91.9081 101.156 92.4081 101.094 92.9081 100.969C95.0644 100.469 96.6581 99.1406 97.6894 96.9844L98.8144 97.3594ZM115.221 102.469C112.252 102.438 110.002 101.219 108.471 98.8125L108.096 102H101.627V100.781C102.439 100.781 103.064 100.719 103.502 100.594C104.377 100.312 104.814 99.4844 104.814 98.1094V72.75H101.627V71.5312H109.314V86.625C109.314 86.5938 109.33 86.5469 109.361 86.4844C110.893 83.1094 113.377 81.4219 116.814 81.4219C118.689 81.4219 120.33 82.0312 121.736 83.25C123.83 85.1562 124.877 87.9219 124.877 91.5469C124.877 94.6406 124.018 97.2031 122.299 99.2344C120.455 101.391 118.096 102.469 115.221 102.469ZM115.033 83.4375C113.939 83.4375 112.955 83.8125 112.08 84.5625C110.236 86.1875 109.314 88.9688 109.314 92.9062C109.314 94.5312 109.502 95.9688 109.877 97.2188C110.721 99.9062 112.283 101.25 114.564 101.25C115.221 101.25 115.83 101.109 116.393 100.828C118.736 99.7344 119.908 96.7969 119.908 92.0156C119.908 91.0781 119.861 90.1875 119.768 89.3438C119.268 85.4062 117.689 83.4375 115.033 83.4375ZM137.158 73.875H150.518C153.83 73.875 156.736 74.6719 159.236 76.2656C163.174 78.7656 165.143 82.6719 165.143 87.9844C165.143 92.1094 163.783 95.4688 161.064 98.0625C158.283 100.688 154.768 102 150.518 102H137.158V100.781H140.908V75.0938H137.158V73.875ZM150.518 75.0938H145.924V100.781H150.564C156.283 100.625 159.252 96.2812 159.471 87.75C159.471 85.2812 159.236 83.1875 158.768 81.4688C157.611 77.2188 154.861 75.0938 150.518 75.0938ZM179.064 82.5938C178.471 82.5938 177.924 82.7031 177.424 82.9219C175.236 83.8906 174.08 86.375 173.955 90.375L178.127 90.4688C179.439 90.5312 180.455 90.4688 181.174 90.2812C182.455 89.9375 183.096 89 183.096 87.4688C183.096 86.8438 183.018 86.2344 182.861 85.6406C182.33 83.6094 181.064 82.5938 179.064 82.5938ZM187.455 97.3594C187.268 97.7969 187.049 98.2344 186.799 98.6719C185.236 101.203 182.689 102.469 179.158 102.469C177.064 102.469 175.189 101.969 173.533 100.969C170.502 99.1562 168.986 96.1719 168.986 92.0156C168.986 89.6094 169.564 87.5 170.721 85.6875C172.533 82.8438 175.299 81.4219 179.018 81.4219C180.986 81.4219 182.752 81.8281 184.314 82.6406C186.658 83.8594 187.83 85.6406 187.83 87.9844C187.83 88.8906 187.58 89.6406 187.08 90.2344C186.018 91.3594 183.346 91.875 179.064 91.7812L173.955 91.6875C173.955 91.7188 173.955 91.75 173.955 91.7812C174.111 98.0312 176.143 101.156 180.049 101.156C180.549 101.156 181.049 101.094 181.549 100.969C183.705 100.469 185.299 99.1406 186.33 96.9844L187.455 97.3594ZM199.221 83.1562H195.986L201.611 98.3438L207.424 83.1562H203.768V81.9844H211.127C211.127 82.3281 211.096 82.5938 211.033 82.7812C210.971 83.0312 210.643 83.1562 210.049 83.1562C209.893 83.1562 209.736 83.1719 209.58 83.2031C209.08 83.2969 208.643 83.7812 208.268 84.6562L201.564 102.234H200.533C199.939 102.234 199.455 102.141 199.08 101.953C198.486 101.672 197.861 100.656 197.205 98.9062L191.393 83.1562H189.424V81.9844H199.221V83.1562ZM223.033 82.5938C222.439 82.5938 221.893 82.7031 221.393 82.9219C219.205 83.8906 218.049 86.375 217.924 90.375L222.096 90.4688C223.408 90.5312 224.424 90.4688 225.143 90.2812C226.424 89.9375 227.064 89 227.064 87.4688C227.064 86.8438 226.986 86.2344 226.83 85.6406C226.299 83.6094 225.033 82.5938 223.033 82.5938ZM231.424 97.3594C231.236 97.7969 231.018 98.2344 230.768 98.6719C229.205 101.203 226.658 102.469 223.127 102.469C221.033 102.469 219.158 101.969 217.502 100.969C214.471 99.1562 212.955 96.1719 212.955 92.0156C212.955 89.6094 213.533 87.5 214.689 85.6875C216.502 82.8438 219.268 81.4219 222.986 81.4219C224.955 81.4219 226.721 81.8281 228.283 82.6406C230.627 83.8594 231.799 85.6406 231.799 87.9844C231.799 88.8906 231.549 89.6406 231.049 90.2344C229.986 91.3594 227.314 91.875 223.033 91.7812L217.924 91.6875C217.924 91.7188 217.924 91.75 217.924 91.7812C218.08 98.0312 220.111 101.156 224.018 101.156C224.518 101.156 225.018 101.094 225.518 100.969C227.674 100.469 229.268 99.1406 230.299 96.9844L231.424 97.3594ZM245.018 100.828C245.205 100.828 245.377 100.844 245.533 100.875C245.939 100.969 246.143 101.344 246.143 102H234.471V100.828C235.471 100.828 236.221 100.75 236.721 100.594C237.596 100.312 238.033 99.4844 238.033 98.1094V72.7031H234.471V71.5312H242.533V100.828H245.018ZM253.877 91.9219C253.877 92.9531 253.924 93.8906 254.018 94.7344C254.455 99.1094 256.236 101.297 259.361 101.297C262.893 101.234 264.689 98.0469 264.752 91.7344C264.752 90.5156 264.689 89.4062 264.564 88.4062C264.033 84.5312 262.283 82.5938 259.314 82.5938C256.002 82.8438 254.189 85.9531 253.877 91.9219ZM259.455 81.4219C261.768 81.4219 263.814 82.0312 265.596 83.25C268.346 85.1875 269.721 88.0469 269.721 91.8281C269.721 94.6406 268.861 97.0312 267.143 99C265.111 101.312 262.471 102.469 259.221 102.469C256.846 102.469 254.752 101.781 252.939 100.406C250.252 98.4062 248.908 95.5156 248.908 91.7344C248.908 89.0156 249.736 86.7188 251.393 84.8438C253.424 82.5625 256.111 81.4219 259.455 81.4219ZM280.174 109.734H283.127C283.346 109.734 283.533 109.75 283.689 109.781C284.096 109.844 284.299 110.219 284.299 110.906H272.533V109.734C273.346 109.734 273.971 109.672 274.408 109.547C275.252 109.266 275.674 108.438 275.674 107.062V83.1562H272.533V81.9844H279.893L280.127 86.8594C280.408 86.0156 280.799 85.25 281.299 84.5625C282.83 82.4688 284.986 81.4219 287.768 81.4219C289.643 81.4219 291.236 81.9844 292.549 83.1094C294.674 84.9531 295.736 87.7344 295.736 91.4531C295.736 94.5781 294.877 97.1562 293.158 99.1875C291.283 101.375 288.893 102.469 285.986 102.469C283.58 102.406 281.643 101.625 280.174 100.125V109.734ZM285.846 83.4375C284.814 83.4375 283.861 83.7969 282.986 84.5156C281.08 86.1719 280.127 88.9688 280.127 92.9062C280.127 94.8125 280.393 96.4531 280.924 97.8281C281.83 100.109 283.314 101.25 285.377 101.25C286.002 101.25 286.596 101.125 287.158 100.875C289.564 99.8438 290.768 96.8906 290.768 92.0156C290.768 91.1719 290.721 90.375 290.627 89.625C290.189 85.5 288.596 83.4375 285.846 83.4375ZM309.143 82.5938C308.549 82.5938 308.002 82.7031 307.502 82.9219C305.314 83.8906 304.158 86.375 304.033 90.375L308.205 90.4688C309.518 90.5312 310.533 90.4688 311.252 90.2812C312.533 89.9375 313.174 89 313.174 87.4688C313.174 86.8438 313.096 86.2344 312.939 85.6406C312.408 83.6094 311.143 82.5938 309.143 82.5938ZM317.533 97.3594C317.346 97.7969 317.127 98.2344 316.877 98.6719C315.314 101.203 312.768 102.469 309.236 102.469C307.143 102.469 305.268 101.969 303.611 100.969C300.58 99.1562 299.064 96.1719 299.064 92.0156C299.064 89.6094 299.643 87.5 300.799 85.6875C302.611 82.8438 305.377 81.4219 309.096 81.4219C311.064 81.4219 312.83 81.8281 314.393 82.6406C316.736 83.8594 317.908 85.6406 317.908 87.9844C317.908 88.8906 317.658 89.6406 317.158 90.2344C316.096 91.3594 313.424 91.875 309.143 91.7812L304.033 91.6875C304.033 91.7188 304.033 91.75 304.033 91.7812C304.189 98.0312 306.221 101.156 310.127 101.156C310.627 101.156 311.127 101.094 311.627 100.969C313.783 100.469 315.377 99.1406 316.408 96.9844L317.533 97.3594ZM331.736 100.828C331.955 100.828 332.143 100.844 332.299 100.875C332.705 100.938 332.908 101.312 332.908 102H320.627V100.828C321.439 100.828 322.049 100.766 322.455 100.641C323.361 100.391 323.814 99.5625 323.814 98.1562V83.1562H320.627V81.9844H327.986L328.221 86.5312C328.596 85.5938 329.127 84.75 329.814 84C331.314 82.4375 333.002 81.6562 334.877 81.6562C335.221 81.6562 335.564 81.6875 335.908 81.75C337.377 82.125 338.111 83.0469 338.111 84.5156C338.111 84.7969 338.064 85.0781 337.971 85.3594C337.596 86.3906 336.861 86.9062 335.768 86.9062C335.518 86.9062 335.283 86.875 335.064 86.8125C334.533 86.625 334.002 86.0625 333.471 85.125C333.033 84.375 332.596 84 332.158 84C331.752 84.0312 331.299 84.2656 330.799 84.7031C329.143 86.1719 328.314 88.5312 328.314 91.7812V100.828H331.736Z" fill="white"/>
<path d="M1.68189 136V124.8H6.04989C7.03123 124.8 7.86856 124.955 8.56189 125.264C9.25523 125.573 9.78856 126.021 10.1619 126.608C10.5352 127.195 10.7219 127.893 10.7219 128.704C10.7219 129.515 10.5352 130.213 10.1619 130.8C9.78856 131.376 9.25523 131.819 8.56189 132.128C7.86856 132.437 7.03123 132.592 6.04989 132.592H2.56189L3.28189 131.856V136H1.68189ZM9.16989 136L6.32189 131.936H8.03389L10.9139 136H9.16989ZM3.28189 132.016L2.56189 131.232H6.00189C7.02589 131.232 7.79923 131.013 8.32189 130.576C8.85523 130.128 9.12189 129.504 9.12189 128.704C9.12189 127.904 8.85523 127.285 8.32189 126.848C7.79923 126.411 7.02589 126.192 6.00189 126.192H2.56189L3.28189 125.392V132.016ZM16.8589 136.096C15.9522 136.096 15.1522 135.909 14.4589 135.536C13.7762 135.163 13.2429 134.651 12.8589 134C12.4856 133.349 12.2989 132.603 12.2989 131.76C12.2989 130.917 12.4802 130.171 12.8429 129.52C13.2162 128.869 13.7229 128.363 14.3629 128C15.0136 127.627 15.7442 127.44 16.5549 127.44C17.3762 127.44 18.1016 127.621 18.7309 127.984C19.3602 128.347 19.8509 128.859 20.2029 129.52C20.5656 130.171 20.7469 130.933 20.7469 131.808C20.7469 131.872 20.7416 131.947 20.7309 132.032C20.7309 132.117 20.7256 132.197 20.7149 132.272H13.4989V131.168H19.9149L19.2909 131.552C19.3016 131.008 19.1896 130.523 18.9549 130.096C18.7202 129.669 18.3949 129.339 17.9789 129.104C17.5736 128.859 17.0989 128.736 16.5549 128.736C16.0216 128.736 15.5469 128.859 15.1309 129.104C14.7149 129.339 14.3896 129.675 14.1549 130.112C13.9202 130.539 13.8029 131.029 13.8029 131.584V131.84C13.8029 132.405 13.9309 132.912 14.1869 133.36C14.4536 133.797 14.8216 134.139 15.2909 134.384C15.7602 134.629 16.2989 134.752 16.9069 134.752C17.4082 134.752 17.8616 134.667 18.2669 134.496C18.6829 134.325 19.0456 134.069 19.3549 133.728L20.2029 134.72C19.8189 135.168 19.3389 135.509 18.7629 135.744C18.1976 135.979 17.5629 136.096 16.8589 136.096ZM27.9094 136V134.208L27.8294 133.872V130.816C27.8294 130.165 27.6374 129.664 27.2534 129.312C26.8801 128.949 26.3147 128.768 25.5574 128.768C25.0561 128.768 24.5654 128.853 24.0854 129.024C23.6054 129.184 23.2001 129.403 22.8694 129.68L22.2294 128.528C22.6667 128.176 23.1894 127.909 23.7974 127.728C24.4161 127.536 25.0614 127.44 25.7334 127.44C26.8961 127.44 27.7921 127.723 28.4214 128.288C29.0507 128.853 29.3654 129.717 29.3654 130.88V136H27.9094ZM25.1254 136.096C24.4961 136.096 23.9414 135.989 23.4614 135.776C22.9921 135.563 22.6294 135.269 22.3734 134.896C22.1174 134.512 21.9894 134.08 21.9894 133.6C21.9894 133.141 22.0961 132.725 22.3094 132.352C22.5334 131.979 22.8907 131.68 23.3814 131.456C23.8827 131.232 24.5547 131.12 25.3974 131.12H28.0854V132.224H25.4614C24.6934 132.224 24.1761 132.352 23.9094 132.608C23.6427 132.864 23.5094 133.173 23.5094 133.536C23.5094 133.952 23.6747 134.288 24.0054 134.544C24.3361 134.789 24.7947 134.912 25.3814 134.912C25.9574 134.912 26.4587 134.784 26.8854 134.528C27.3227 134.272 27.6374 133.899 27.8294 133.408L28.1334 134.464C27.9307 134.965 27.5734 135.365 27.0614 135.664C26.5494 135.952 25.9041 136.096 25.1254 136.096ZM35.7119 136.096C34.8906 136.096 34.1546 135.915 33.5039 135.552C32.8639 135.189 32.3572 134.683 31.9839 134.032C31.6106 133.381 31.4239 132.624 31.4239 131.76C31.4239 130.896 31.6106 130.144 31.9839 129.504C32.3572 128.853 32.8639 128.347 33.5039 127.984C34.1546 127.621 34.8906 127.44 35.7119 127.44C36.4266 127.44 37.0719 127.6 37.6479 127.92C38.2239 128.24 38.6826 128.72 39.0239 129.36C39.3759 130 39.5519 130.8 39.5519 131.76C39.5519 132.72 39.3812 133.52 39.0399 134.16C38.7092 134.8 38.2559 135.285 37.6799 135.616C37.1039 135.936 36.4479 136.096 35.7119 136.096ZM35.8399 134.752C36.3732 134.752 36.8532 134.629 37.2799 134.384C37.7172 134.139 38.0586 133.792 38.3039 133.344C38.5599 132.885 38.6879 132.357 38.6879 131.76C38.6879 131.152 38.5599 130.629 38.3039 130.192C38.0586 129.744 37.7172 129.397 37.2799 129.152C36.8532 128.907 36.3732 128.784 35.8399 128.784C35.2959 128.784 34.8106 128.907 34.3839 129.152C33.9572 129.397 33.6159 129.744 33.3599 130.192C33.1039 130.629 32.9759 131.152 32.9759 131.76C32.9759 132.357 33.1039 132.885 33.3599 133.344C33.6159 133.792 33.9572 134.139 34.3839 134.384C34.8106 134.629 35.2959 134.752 35.8399 134.752ZM38.7359 136V133.712L38.8319 131.744L38.6719 129.776V124.128H40.2079V136H38.7359ZM43.4821 139.2C43.0768 139.2 42.6821 139.131 42.2981 138.992C41.9141 138.864 41.5835 138.672 41.3061 138.416L41.9621 137.264C42.1755 137.467 42.4101 137.621 42.6661 137.728C42.9221 137.835 43.1941 137.888 43.4821 137.888C43.8555 137.888 44.1648 137.792 44.4101 137.6C44.6555 137.408 44.8848 137.067 45.0981 136.576L45.6261 135.408L45.7861 135.216L49.1141 127.52H50.6181L46.5061 136.848C46.2608 137.445 45.9835 137.915 45.6741 138.256C45.3755 138.597 45.0448 138.837 44.6821 138.976C44.3195 139.125 43.9195 139.2 43.4821 139.2ZM45.4981 136.272L41.6261 127.52H43.2261L46.5221 135.072L45.4981 136.272ZM59.2605 136.096C58.4072 136.096 57.7459 135.867 57.2765 135.408C56.8072 134.949 56.5725 134.293 56.5725 133.44V125.664H58.1085V133.376C58.1085 133.835 58.2205 134.187 58.4445 134.432C58.6792 134.677 59.0099 134.8 59.4365 134.8C59.9165 134.8 60.3165 134.667 60.6365 134.4L61.1165 135.504C60.8819 135.707 60.5992 135.856 60.2685 135.952C59.9485 136.048 59.6125 136.096 59.2605 136.096ZM55.1325 128.784V127.52H60.5405V128.784H55.1325ZM66.3243 136.096C65.4709 136.096 64.7136 135.909 64.0523 135.536C63.3909 135.163 62.8683 134.651 62.4843 134C62.1003 133.339 61.9083 132.592 61.9083 131.76C61.9083 130.917 62.1003 130.171 62.4843 129.52C62.8683 128.869 63.3909 128.363 64.0523 128C64.7136 127.627 65.4709 127.44 66.3243 127.44C67.1669 127.44 67.9189 127.627 68.5803 128C69.2523 128.363 69.7749 128.869 70.1483 129.52C70.5323 130.16 70.7243 130.907 70.7243 131.76C70.7243 132.603 70.5323 133.349 70.1483 134C69.7749 134.651 69.2523 135.163 68.5803 135.536C67.9189 135.909 67.1669 136.096 66.3243 136.096ZM66.3243 134.752C66.8683 134.752 67.3536 134.629 67.7803 134.384C68.2176 134.139 68.5589 133.792 68.8043 133.344C69.0496 132.885 69.1723 132.357 69.1723 131.76C69.1723 131.152 69.0496 130.629 68.8043 130.192C68.5589 129.744 68.2176 129.397 67.7803 129.152C67.3536 128.907 66.8683 128.784 66.3243 128.784C65.7803 128.784 65.2949 128.907 64.8683 129.152C64.4416 129.397 64.1003 129.744 63.8443 130.192C63.5883 130.629 63.4603 131.152 63.4603 131.76C63.4603 132.357 63.5883 132.885 63.8443 133.344C64.1003 133.792 64.4416 134.139 64.8683 134.384C65.2949 134.629 65.7803 134.752 66.3243 134.752ZM80.6494 136.096C79.8281 136.096 79.0921 135.915 78.4414 135.552C77.8014 135.189 77.2947 134.683 76.9214 134.032C76.5481 133.381 76.3614 132.624 76.3614 131.76C76.3614 130.896 76.5481 130.144 76.9214 129.504C77.2947 128.853 77.8014 128.347 78.4414 127.984C79.0921 127.621 79.8281 127.44 80.6494 127.44C81.3641 127.44 82.0094 127.6 82.5854 127.92C83.1614 128.24 83.6201 128.72 83.9614 129.36C84.3134 130 84.4894 130.8 84.4894 131.76C84.4894 132.72 84.3187 133.52 83.9774 134.16C83.6467 134.8 83.1934 135.285 82.6174 135.616C82.0414 135.936 81.3854 136.096 80.6494 136.096ZM80.7774 134.752C81.3107 134.752 81.7907 134.629 82.2174 134.384C82.6547 134.139 82.9961 133.792 83.2414 133.344C83.4974 132.885 83.6254 132.357 83.6254 131.76C83.6254 131.152 83.4974 130.629 83.2414 130.192C82.9961 129.744 82.6547 129.397 82.2174 129.152C81.7907 128.907 81.3107 128.784 80.7774 128.784C80.2334 128.784 79.7481 128.907 79.3214 129.152C78.8947 129.397 78.5534 129.744 78.2974 130.192C78.0414 130.629 77.9134 131.152 77.9134 131.76C77.9134 132.357 78.0414 132.885 78.2974 133.344C78.5534 133.792 78.8947 134.139 79.3214 134.384C79.7481 134.629 80.2334 134.752 80.7774 134.752ZM83.6734 136V133.712L83.7694 131.744L83.6094 129.776V124.128H85.1454V136H83.6734ZM88.0516 136V127.52H89.5876V136H88.0516ZM88.8196 125.888C88.521 125.888 88.2703 125.792 88.0676 125.6C87.8756 125.408 87.7796 125.173 87.7796 124.896C87.7796 124.608 87.8756 124.368 88.0676 124.176C88.2703 123.984 88.521 123.888 88.8196 123.888C89.1183 123.888 89.3636 123.984 89.5556 124.176C89.7583 124.357 89.8596 124.587 89.8596 124.864C89.8596 125.152 89.7636 125.397 89.5716 125.6C89.3796 125.792 89.129 125.888 88.8196 125.888ZM94.7444 136L91.0324 127.52H92.6324L95.9284 135.2H95.1604L98.5204 127.52H100.024L96.3124 136H94.7444ZM105 136.096C104.093 136.096 103.293 135.909 102.6 135.536C101.917 135.163 101.384 134.651 101 134C100.626 133.349 100.44 132.603 100.44 131.76C100.44 130.917 100.621 130.171 100.984 129.52C101.357 128.869 101.864 128.363 102.504 128C103.154 127.627 103.885 127.44 104.696 127.44C105.517 127.44 106.242 127.621 106.872 127.984C107.501 128.347 107.992 128.859 108.344 129.52C108.706 130.171 108.888 130.933 108.888 131.808C108.888 131.872 108.882 131.947 108.872 132.032C108.872 132.117 108.866 132.197 108.856 132.272H101.64V131.168H108.056L107.432 131.552C107.442 131.008 107.33 130.523 107.096 130.096C106.861 129.669 106.536 129.339 106.12 129.104C105.714 128.859 105.24 128.736 104.696 128.736C104.162 128.736 103.688 128.859 103.272 129.104C102.856 129.339 102.53 129.675 102.296 130.112C102.061 130.539 101.944 131.029 101.944 131.584V131.84C101.944 132.405 102.072 132.912 102.328 133.36C102.594 133.797 102.962 134.139 103.432 134.384C103.901 134.629 104.44 134.752 105.048 134.752C105.549 134.752 106.002 134.667 106.408 134.496C106.824 134.325 107.186 134.069 107.496 133.728L108.344 134.72C107.96 135.168 107.48 135.509 106.904 135.744C106.338 135.979 105.704 136.096 105 136.096ZM115.317 136V127.52H116.853V136H115.317ZM116.085 125.888C115.787 125.888 115.536 125.792 115.333 125.6C115.141 125.408 115.045 125.173 115.045 124.896C115.045 124.608 115.141 124.368 115.333 124.176C115.536 123.984 115.787 123.888 116.085 123.888C116.384 123.888 116.629 123.984 116.821 124.176C117.024 124.357 117.125 124.587 117.125 124.864C117.125 125.152 117.029 125.397 116.837 125.6C116.645 125.792 116.395 125.888 116.085 125.888ZM124.314 127.44C125.007 127.44 125.615 127.573 126.138 127.84C126.671 128.107 127.087 128.512 127.386 129.056C127.685 129.6 127.834 130.288 127.834 131.12V136H126.298V131.296C126.298 130.475 126.095 129.856 125.69 129.44C125.295 129.024 124.735 128.816 124.01 128.816C123.466 128.816 122.991 128.923 122.586 129.136C122.181 129.349 121.866 129.664 121.642 130.08C121.429 130.496 121.322 131.013 121.322 131.632V136H119.786V127.52H121.258V129.808L121.018 129.2C121.295 128.645 121.722 128.213 122.298 127.904C122.874 127.595 123.546 127.44 124.314 127.44ZM133.589 136.096C132.735 136.096 132.074 135.867 131.605 135.408C131.135 134.949 130.901 134.293 130.901 133.44V125.664H132.437V133.376C132.437 133.835 132.549 134.187 132.773 134.432C133.007 134.677 133.338 134.8 133.765 134.8C134.245 134.8 134.645 134.667 134.965 134.4L135.445 135.504C135.21 135.707 134.927 135.856 134.597 135.952C134.277 136.048 133.941 136.096 133.589 136.096ZM129.461 128.784V127.52H134.869V128.784H129.461ZM140.652 136.096C139.799 136.096 139.042 135.909 138.38 135.536C137.719 135.163 137.196 134.651 136.812 134C136.428 133.339 136.236 132.592 136.236 131.76C136.236 130.917 136.428 130.171 136.812 129.52C137.196 128.869 137.719 128.363 138.38 128C139.042 127.627 139.799 127.44 140.652 127.44C141.495 127.44 142.247 127.627 142.908 128C143.58 128.363 144.103 128.869 144.476 129.52C144.86 130.16 145.052 130.907 145.052 131.76C145.052 132.603 144.86 133.349 144.476 134C144.103 134.651 143.58 135.163 142.908 135.536C142.247 135.909 141.495 136.096 140.652 136.096ZM140.652 134.752C141.196 134.752 141.682 134.629 142.108 134.384C142.546 134.139 142.887 133.792 143.132 133.344C143.378 132.885 143.5 132.357 143.5 131.76C143.5 131.152 143.378 130.629 143.132 130.192C142.887 129.744 142.546 129.397 142.108 129.152C141.682 128.907 141.196 128.784 140.652 128.784C140.108 128.784 139.623 128.907 139.196 129.152C138.77 129.397 138.428 129.744 138.172 130.192C137.916 130.629 137.788 131.152 137.788 131.76C137.788 132.357 137.916 132.885 138.172 133.344C138.428 133.792 138.77 134.139 139.196 134.384C139.623 134.629 140.108 134.752 140.652 134.752ZM155.17 136.096C154.306 136.096 153.532 135.909 152.85 135.536C152.178 135.163 151.65 134.651 151.266 134C150.882 133.349 150.69 132.603 150.69 131.76C150.69 130.917 150.882 130.171 151.266 129.52C151.65 128.869 152.178 128.363 152.85 128C153.532 127.627 154.306 127.44 155.17 127.44C155.938 127.44 156.62 127.595 157.218 127.904C157.826 128.203 158.295 128.651 158.626 129.248L157.458 130C157.18 129.584 156.839 129.28 156.434 129.088C156.039 128.885 155.612 128.784 155.154 128.784C154.599 128.784 154.103 128.907 153.666 129.152C153.228 129.397 152.882 129.744 152.626 130.192C152.37 130.629 152.242 131.152 152.242 131.76C152.242 132.368 152.37 132.896 152.626 133.344C152.882 133.792 153.228 134.139 153.666 134.384C154.103 134.629 154.599 134.752 155.154 134.752C155.612 134.752 156.039 134.656 156.434 134.464C156.839 134.261 157.18 133.952 157.458 133.536L158.626 134.272C158.295 134.859 157.826 135.312 157.218 135.632C156.62 135.941 155.938 136.096 155.17 136.096ZM160.614 136V127.52H162.086V129.824L161.942 129.248C162.177 128.661 162.571 128.213 163.126 127.904C163.681 127.595 164.363 127.44 165.174 127.44V128.928C165.11 128.917 165.046 128.912 164.982 128.912C164.929 128.912 164.875 128.912 164.822 128.912C164.001 128.912 163.35 129.157 162.87 129.648C162.39 130.139 162.15 130.848 162.15 131.776V136H160.614ZM170.765 136.096C169.858 136.096 169.058 135.909 168.365 135.536C167.682 135.163 167.149 134.651 166.765 134C166.392 133.349 166.205 132.603 166.205 131.76C166.205 130.917 166.386 130.171 166.749 129.52C167.122 128.869 167.629 128.363 168.269 128C168.92 127.627 169.65 127.44 170.461 127.44C171.282 127.44 172.008 127.621 172.637 127.984C173.266 128.347 173.757 128.859 174.109 129.52C174.472 130.171 174.653 130.933 174.653 131.808C174.653 131.872 174.648 131.947 174.637 132.032C174.637 132.117 174.632 132.197 174.621 132.272H167.405V131.168H173.821L173.197 131.552C173.208 131.008 173.096 130.523 172.861 130.096C172.626 129.669 172.301 129.339 171.885 129.104C171.48 128.859 171.005 128.736 170.461 128.736C169.928 128.736 169.453 128.859 169.037 129.104C168.621 129.339 168.296 129.675 168.061 130.112C167.826 130.539 167.709 131.029 167.709 131.584V131.84C167.709 132.405 167.837 132.912 168.093 133.36C168.36 133.797 168.728 134.139 169.197 134.384C169.666 134.629 170.205 134.752 170.813 134.752C171.314 134.752 171.768 134.667 172.173 134.496C172.589 134.325 172.952 134.069 173.261 133.728L174.109 134.72C173.725 135.168 173.245 135.509 172.669 135.744C172.104 135.979 171.469 136.096 170.765 136.096ZM181.816 136V134.208L181.736 133.872V130.816C181.736 130.165 181.544 129.664 181.16 129.312C180.786 128.949 180.221 128.768 179.464 128.768C178.962 128.768 178.472 128.853 177.992 129.024C177.512 129.184 177.106 129.403 176.776 129.68L176.136 128.528C176.573 128.176 177.096 127.909 177.704 127.728C178.322 127.536 178.968 127.44 179.64 127.44C180.802 127.44 181.698 127.723 182.328 128.288C182.957 128.853 183.272 129.717 183.272 130.88V136H181.816ZM179.032 136.096C178.402 136.096 177.848 135.989 177.368 135.776C176.898 135.563 176.536 135.269 176.28 134.896C176.024 134.512 175.896 134.08 175.896 133.6C175.896 133.141 176.002 132.725 176.216 132.352C176.44 131.979 176.797 131.68 177.288 131.456C177.789 131.232 178.461 131.12 179.304 131.12H181.992V132.224H179.368C178.6 132.224 178.082 132.352 177.816 132.608C177.549 132.864 177.416 133.173 177.416 133.536C177.416 133.952 177.581 134.288 177.912 134.544C178.242 134.789 178.701 134.912 179.288 134.912C179.864 134.912 180.365 134.784 180.792 134.528C181.229 134.272 181.544 133.899 181.736 133.408L182.04 134.464C181.837 134.965 181.48 135.365 180.968 135.664C180.456 135.952 179.81 136.096 179.032 136.096ZM189.026 136.096C188.173 136.096 187.511 135.867 187.042 135.408C186.573 134.949 186.338 134.293 186.338 133.44V125.664H187.874V133.376C187.874 133.835 187.986 134.187 188.21 134.432C188.445 134.677 188.775 134.8 189.202 134.8C189.682 134.8 190.082 134.667 190.402 134.4L190.882 135.504C190.647 135.707 190.365 135.856 190.034 135.952C189.714 136.048 189.378 136.096 189.026 136.096ZM184.898 128.784V127.52H190.306V128.784H184.898ZM192.739 136V127.52H194.275V136H192.739ZM193.507 125.888C193.208 125.888 192.958 125.792 192.755 125.6C192.563 125.408 192.467 125.173 192.467 124.896C192.467 124.608 192.563 124.368 192.755 124.176C192.958 123.984 193.208 123.888 193.507 123.888C193.806 123.888 194.051 123.984 194.243 124.176C194.446 124.357 194.547 124.587 194.547 124.864C194.547 125.152 194.451 125.397 194.259 125.6C194.067 125.792 193.816 125.888 193.507 125.888ZM199.432 136L195.72 127.52H197.32L200.616 135.2H199.848L203.208 127.52H204.712L201 136H199.432ZM206.145 136V127.52H207.681V136H206.145ZM206.913 125.888C206.615 125.888 206.364 125.792 206.161 125.6C205.969 125.408 205.873 125.173 205.873 124.896C205.873 124.608 205.969 124.368 206.161 124.176C206.364 123.984 206.615 123.888 206.913 123.888C207.212 123.888 207.457 123.984 207.649 124.176C207.852 124.357 207.953 124.587 207.953 124.864C207.953 125.152 207.857 125.397 207.665 125.6C207.473 125.792 207.223 125.888 206.913 125.888ZM213.526 136.096C212.673 136.096 212.011 135.867 211.542 135.408C211.073 134.949 210.838 134.293 210.838 133.44V125.664H212.374V133.376C212.374 133.835 212.486 134.187 212.71 134.432C212.945 134.677 213.275 134.8 213.702 134.8C214.182 134.8 214.582 134.667 214.902 134.4L215.382 135.504C215.147 135.707 214.865 135.856 214.534 135.952C214.214 136.048 213.878 136.096 213.526 136.096ZM209.398 128.784V127.52H214.806V128.784H209.398ZM217.451 139.2C217.046 139.2 216.651 139.131 216.267 138.992C215.883 138.864 215.552 138.672 215.275 138.416L215.931 137.264C216.144 137.467 216.379 137.621 216.635 137.728C216.891 137.835 217.163 137.888 217.451 137.888C217.824 137.888 218.134 137.792 218.379 137.6C218.624 137.408 218.854 137.067 219.067 136.576L219.595 135.408L219.755 135.216L223.083 127.52H224.587L220.475 136.848C220.23 137.445 219.952 137.915 219.643 138.256C219.344 138.597 219.014 138.837 218.651 138.976C218.288 139.125 217.888 139.2 217.451 139.2ZM219.467 136.272L215.595 127.52H217.195L220.491 135.072L219.467 136.272ZM228.744 132.464C228.744 132.048 228.813 131.685 228.952 131.376C229.09 131.067 229.261 130.789 229.464 130.544C229.677 130.299 229.906 130.075 230.152 129.872C230.397 129.659 230.626 129.451 230.84 129.248C231.053 129.035 231.224 128.811 231.352 128.576C231.49 128.341 231.56 128.069 231.56 127.76C231.56 127.248 231.357 126.832 230.952 126.512C230.546 126.192 229.986 126.032 229.272 126.032C228.632 126.032 228.077 126.139 227.608 126.352C227.138 126.565 226.738 126.88 226.408 127.296L225.24 126.464C225.688 125.899 226.258 125.461 226.952 125.152C227.645 124.832 228.456 124.672 229.384 124.672C230.152 124.672 230.818 124.789 231.384 125.024C231.949 125.248 232.386 125.573 232.696 126C233.016 126.416 233.176 126.923 233.176 127.52C233.176 127.968 233.106 128.352 232.968 128.672C232.829 128.992 232.653 129.275 232.44 129.52C232.226 129.765 231.997 129.995 231.752 130.208C231.517 130.421 231.293 130.635 231.08 130.848C230.866 131.061 230.69 131.296 230.552 131.552C230.413 131.808 230.344 132.112 230.344 132.464H228.744ZM229.56 136.096C229.261 136.096 229.01 135.995 228.808 135.792C228.616 135.589 228.52 135.349 228.52 135.072C228.52 134.773 228.616 134.528 228.808 134.336C229.01 134.144 229.261 134.048 229.56 134.048C229.858 134.048 230.104 134.144 230.296 134.336C230.488 134.528 230.584 134.773 230.584 135.072C230.584 135.349 230.488 135.589 230.296 135.792C230.104 135.995 229.858 136.096 229.56 136.096ZM241.7 129.632H247.46V130.992H241.7V129.632ZM241.844 134.608H248.372V136H240.244V124.8H248.148V126.192H241.844V134.608ZM249.32 136L252.968 131.264L252.952 132.048L249.48 127.52H251.192L253.848 131.008H253.192L255.848 127.52H257.528L254.008 132.08L254.024 131.264L257.704 136H255.96L253.16 132.288L253.784 132.384L251.032 136H249.32ZM263.876 136.096C263.172 136.096 262.526 135.936 261.94 135.616C261.364 135.285 260.9 134.8 260.548 134.16C260.206 133.52 260.036 132.72 260.036 131.76C260.036 130.8 260.201 130 260.532 129.36C260.873 128.72 261.332 128.24 261.908 127.92C262.494 127.6 263.15 127.44 263.876 127.44C264.708 127.44 265.444 127.621 266.084 127.984C266.724 128.347 267.23 128.853 267.604 129.504C267.977 130.144 268.164 130.896 268.164 131.76C268.164 132.624 267.977 133.381 267.604 134.032C267.23 134.683 266.724 135.189 266.084 135.552C265.444 135.915 264.708 136.096 263.876 136.096ZM259.38 139.104V127.52H260.852V129.808L260.756 131.776L260.916 133.744V139.104H259.38ZM263.748 134.752C264.292 134.752 264.777 134.629 265.204 134.384C265.641 134.139 265.982 133.792 266.228 133.344C266.484 132.885 266.612 132.357 266.612 131.76C266.612 131.152 266.484 130.629 266.228 130.192C265.982 129.744 265.641 129.397 265.204 129.152C264.777 128.907 264.292 128.784 263.748 128.784C263.214 128.784 262.729 128.907 262.292 129.152C261.865 129.397 261.524 129.744 261.268 130.192C261.022 130.629 260.9 131.152 260.9 131.76C260.9 132.357 261.022 132.885 261.268 133.344C261.524 133.792 261.865 134.139 262.292 134.384C262.729 134.629 263.214 134.752 263.748 134.752ZM270.286 136V124.128H271.822V136H270.286ZM278.387 136.096C277.533 136.096 276.776 135.909 276.115 135.536C275.453 135.163 274.931 134.651 274.547 134C274.163 133.339 273.971 132.592 273.971 131.76C273.971 130.917 274.163 130.171 274.547 129.52C274.931 128.869 275.453 128.363 276.115 128C276.776 127.627 277.533 127.44 278.387 127.44C279.229 127.44 279.981 127.627 280.643 128C281.315 128.363 281.837 128.869 282.211 129.52C282.595 130.16 282.787 130.907 282.787 131.76C282.787 132.603 282.595 133.349 282.211 134C281.837 134.651 281.315 135.163 280.643 135.536C279.981 135.909 279.229 136.096 278.387 136.096ZM278.387 134.752C278.931 134.752 279.416 134.629 279.843 134.384C280.28 134.139 280.621 133.792 280.867 133.344C281.112 132.885 281.235 132.357 281.235 131.76C281.235 131.152 281.112 130.629 280.867 130.192C280.621 129.744 280.28 129.397 279.843 129.152C279.416 128.907 278.931 128.784 278.387 128.784C277.843 128.784 277.357 128.907 276.931 129.152C276.504 129.397 276.163 129.744 275.907 130.192C275.651 130.629 275.523 131.152 275.523 131.76C275.523 132.357 275.651 132.885 275.907 133.344C276.163 133.792 276.504 134.139 276.931 134.384C277.357 134.629 277.843 134.752 278.387 134.752ZM284.911 136V127.52H286.383V129.824L286.239 129.248C286.474 128.661 286.868 128.213 287.423 127.904C287.978 127.595 288.66 127.44 289.471 127.44V128.928C289.407 128.917 289.343 128.912 289.279 128.912C289.226 128.912 289.172 128.912 289.119 128.912C288.298 128.912 287.647 129.157 287.167 129.648C286.687 130.139 286.447 130.848 286.447 131.776V136H284.911ZM295.062 136.096C294.155 136.096 293.355 135.909 292.662 135.536C291.979 135.163 291.446 134.651 291.062 134C290.689 133.349 290.502 132.603 290.502 131.76C290.502 130.917 290.683 130.171 291.046 129.52C291.419 128.869 291.926 128.363 292.566 128C293.217 127.627 293.947 127.44 294.758 127.44C295.579 127.44 296.305 127.621 296.934 127.984C297.563 128.347 298.054 128.859 298.406 129.52C298.769 130.171 298.95 130.933 298.95 131.808C298.95 131.872 298.945 131.947 298.934 132.032C298.934 132.117 298.929 132.197 298.918 132.272H291.702V131.168H298.118L297.494 131.552C297.505 131.008 297.393 130.523 297.158 130.096C296.923 129.669 296.598 129.339 296.182 129.104C295.777 128.859 295.302 128.736 294.758 128.736C294.225 128.736 293.75 128.859 293.334 129.104C292.918 129.339 292.593 129.675 292.358 130.112C292.123 130.539 292.006 131.029 292.006 131.584V131.84C292.006 132.405 292.134 132.912 292.39 133.36C292.657 133.797 293.025 134.139 293.494 134.384C293.963 134.629 294.502 134.752 295.11 134.752C295.611 134.752 296.065 134.667 296.47 134.496C296.886 134.325 297.249 134.069 297.558 133.728L298.406 134.72C298.022 135.168 297.542 135.509 296.966 135.744C296.401 135.979 295.766 136.096 295.062 136.096ZM315.988 127.44C316.67 127.44 317.273 127.573 317.796 127.84C318.318 128.107 318.724 128.512 319.012 129.056C319.31 129.6 319.46 130.288 319.46 131.12V136H317.924V131.296C317.924 130.475 317.732 129.856 317.348 129.44C316.964 129.024 316.425 128.816 315.732 128.816C315.22 128.816 314.772 128.923 314.388 129.136C314.004 129.349 313.705 129.664 313.492 130.08C313.289 130.496 313.188 131.013 313.188 131.632V136H311.652V131.296C311.652 130.475 311.46 129.856 311.076 129.44C310.702 129.024 310.164 128.816 309.46 128.816C308.958 128.816 308.516 128.923 308.132 129.136C307.748 129.349 307.449 129.664 307.236 130.08C307.022 130.496 306.916 131.013 306.916 131.632V136H305.38V127.52H306.852V129.776L306.612 129.2C306.878 128.645 307.289 128.213 307.844 127.904C308.398 127.595 309.044 127.44 309.78 127.44C310.59 127.44 311.289 127.643 311.876 128.048C312.462 128.443 312.846 129.045 313.028 129.856L312.404 129.6C312.66 128.949 313.108 128.427 313.748 128.032C314.388 127.637 315.134 127.44 315.988 127.44ZM322.498 139.2C322.092 139.2 321.698 139.131 321.314 138.992C320.93 138.864 320.599 138.672 320.322 138.416L320.978 137.264C321.191 137.467 321.426 137.621 321.682 137.728C321.938 137.835 322.21 137.888 322.498 137.888C322.871 137.888 323.18 137.792 323.426 137.6C323.671 137.408 323.9 137.067 324.114 136.576L324.642 135.408L324.802 135.216L328.13 127.52H329.634L325.522 136.848C325.276 137.445 324.999 137.915 324.69 138.256C324.391 138.597 324.06 138.837 323.698 138.976C323.335 139.125 322.935 139.2 322.498 139.2ZM324.514 136.272L320.642 127.52H322.242L325.538 135.072L324.514 136.272ZM339.86 136.096C339.156 136.096 338.511 135.936 337.924 135.616C337.348 135.285 336.884 134.8 336.532 134.16C336.191 133.52 336.02 132.72 336.02 131.76C336.02 130.8 336.185 130 336.516 129.36C336.857 128.72 337.316 128.24 337.892 127.92C338.479 127.6 339.135 127.44 339.86 127.44C340.692 127.44 341.428 127.621 342.068 127.984C342.708 128.347 343.215 128.853 343.588 129.504C343.961 130.144 344.148 130.896 344.148 131.76C344.148 132.624 343.961 133.381 343.588 134.032C343.215 134.683 342.708 135.189 342.068 135.552C341.428 135.915 340.692 136.096 339.86 136.096ZM335.364 139.104V127.52H336.836V129.808L336.74 131.776L336.9 133.744V139.104H335.364ZM339.732 134.752C340.276 134.752 340.761 134.629 341.188 134.384C341.625 134.139 341.967 133.792 342.212 133.344C342.468 132.885 342.596 132.357 342.596 131.76C342.596 131.152 342.468 130.629 342.212 130.192C341.967 129.744 341.625 129.397 341.188 129.152C340.761 128.907 340.276 128.784 339.732 128.784C339.199 128.784 338.713 128.907 338.276 129.152C337.849 129.397 337.508 129.744 337.252 130.192C337.007 130.629 336.884 131.152 336.884 131.76C336.884 132.357 337.007 132.885 337.252 133.344C337.508 133.792 337.849 134.139 338.276 134.384C338.713 134.629 339.199 134.752 339.732 134.752ZM349.902 136.096C349.049 136.096 348.292 135.909 347.63 135.536C346.969 135.163 346.446 134.651 346.062 134C345.678 133.339 345.486 132.592 345.486 131.76C345.486 130.917 345.678 130.171 346.062 129.52C346.446 128.869 346.969 128.363 347.63 128C348.292 127.627 349.049 127.44 349.902 127.44C350.745 127.44 351.497 127.627 352.158 128C352.83 128.363 353.353 128.869 353.726 129.52C354.11 130.16 354.302 130.907 354.302 131.76C354.302 132.603 354.11 133.349 353.726 134C353.353 134.651 352.83 135.163 352.158 135.536C351.497 135.909 350.745 136.096 349.902 136.096ZM349.902 134.752C350.446 134.752 350.932 134.629 351.358 134.384C351.796 134.139 352.137 133.792 352.382 133.344C352.628 132.885 352.75 132.357 352.75 131.76C352.75 131.152 352.628 130.629 352.382 130.192C352.137 129.744 351.796 129.397 351.358 129.152C350.932 128.907 350.446 128.784 349.902 128.784C349.358 128.784 348.873 128.907 348.446 129.152C348.02 129.397 347.678 129.744 347.422 130.192C347.166 130.629 347.038 131.152 347.038 131.76C347.038 132.357 347.166 132.885 347.422 133.344C347.678 133.792 348.02 134.139 348.446 134.384C348.873 134.629 349.358 134.752 349.902 134.752ZM356.427 136V127.52H357.899V129.824L357.755 129.248C357.989 128.661 358.384 128.213 358.939 127.904C359.493 127.595 360.176 127.44 360.987 127.44V128.928C360.923 128.917 360.859 128.912 360.795 128.912C360.741 128.912 360.688 128.912 360.635 128.912C359.813 128.912 359.163 129.157 358.683 129.648C358.203 130.139 357.963 130.848 357.963 131.776V136H356.427ZM366.136 136.096C365.282 136.096 364.621 135.867 364.152 135.408C363.682 134.949 363.448 134.293 363.448 133.44V125.664H364.984V133.376C364.984 133.835 365.096 134.187 365.32 134.432C365.554 134.677 365.885 134.8 366.312 134.8C366.792 134.8 367.192 134.667 367.512 134.4L367.992 135.504C367.757 135.707 367.474 135.856 367.144 135.952C366.824 136.048 366.488 136.096 366.136 136.096ZM362.008 128.784V127.52H367.416V128.784H362.008ZM370.073 136V126.768C370.073 125.936 370.313 125.275 370.793 124.784C371.283 124.283 371.977 124.032 372.873 124.032C373.203 124.032 373.518 124.075 373.817 124.16C374.126 124.235 374.387 124.357 374.601 124.528L374.137 125.696C373.977 125.568 373.795 125.472 373.593 125.408C373.39 125.333 373.177 125.296 372.953 125.296C372.505 125.296 372.163 125.424 371.929 125.68C371.694 125.925 371.577 126.293 371.577 126.784V127.92L371.609 128.624V136H370.073ZM368.633 128.784V127.52H374.041V128.784H368.633ZM378.996 136.096C378.143 136.096 377.385 135.909 376.724 135.536C376.063 135.163 375.54 134.651 375.156 134C374.772 133.339 374.58 132.592 374.58 131.76C374.58 130.917 374.772 130.171 375.156 129.52C375.54 128.869 376.063 128.363 376.724 128C377.385 127.627 378.143 127.44 378.996 127.44C379.839 127.44 380.591 127.627 381.252 128C381.924 128.363 382.447 128.869 382.82 129.52C383.204 130.16 383.396 130.907 383.396 131.76C383.396 132.603 383.204 133.349 382.82 134C382.447 134.651 381.924 135.163 381.252 135.536C380.591 135.909 379.839 136.096 378.996 136.096ZM378.996 134.752C379.54 134.752 380.025 134.629 380.452 134.384C380.889 134.139 381.231 133.792 381.476 133.344C381.721 132.885 381.844 132.357 381.844 131.76C381.844 131.152 381.721 130.629 381.476 130.192C381.231 129.744 380.889 129.397 380.452 129.152C380.025 128.907 379.54 128.784 378.996 128.784C378.452 128.784 377.967 128.907 377.54 129.152C377.113 129.397 376.772 129.744 376.516 130.192C376.26 130.629 376.132 131.152 376.132 131.76C376.132 132.357 376.26 132.885 376.516 133.344C376.772 133.792 377.113 134.139 377.54 134.384C377.967 134.629 378.452 134.752 378.996 134.752ZM385.52 136V124.128H387.056V136H385.52ZM389.989 136V127.52H391.525V136H389.989ZM390.757 125.888C390.458 125.888 390.208 125.792 390.005 125.6C389.813 125.408 389.717 125.173 389.717 124.896C389.717 124.608 389.813 124.368 390.005 124.176C390.208 123.984 390.458 123.888 390.757 123.888C391.056 123.888 391.301 123.984 391.493 124.176C391.696 124.357 391.797 124.587 391.797 124.864C391.797 125.152 391.701 125.397 391.509 125.6C391.317 125.792 391.066 125.888 390.757 125.888ZM398.09 136.096C397.237 136.096 396.479 135.909 395.818 135.536C395.157 135.163 394.634 134.651 394.25 134C393.866 133.339 393.674 132.592 393.674 131.76C393.674 130.917 393.866 130.171 394.25 129.52C394.634 128.869 395.157 128.363 395.818 128C396.479 127.627 397.237 127.44 398.09 127.44C398.933 127.44 399.685 127.627 400.346 128C401.018 128.363 401.541 128.869 401.914 129.52C402.298 130.16 402.49 130.907 402.49 131.76C402.49 132.603 402.298 133.349 401.914 134C401.541 134.651 401.018 135.163 400.346 135.536C399.685 135.909 398.933 136.096 398.09 136.096ZM398.09 134.752C398.634 134.752 399.119 134.629 399.546 134.384C399.983 134.139 400.325 133.792 400.57 133.344C400.815 132.885 400.938 132.357 400.938 131.76C400.938 131.152 400.815 130.629 400.57 130.192C400.325 129.744 399.983 129.397 399.546 129.152C399.119 128.907 398.634 128.784 398.09 128.784C397.546 128.784 397.061 128.907 396.634 129.152C396.207 129.397 395.866 129.744 395.61 130.192C395.354 130.629 395.226 131.152 395.226 131.76C395.226 132.357 395.354 132.885 395.61 133.344C395.866 133.792 396.207 134.139 396.634 134.384C397.061 134.629 397.546 134.752 398.09 134.752ZM411.823 136.096C410.97 136.096 410.308 135.867 409.839 135.408C409.37 134.949 409.135 134.293 409.135 133.44V125.664H410.671V133.376C410.671 133.835 410.783 134.187 411.007 134.432C411.242 134.677 411.572 134.8 411.999 134.8C412.479 134.8 412.879 134.667 413.199 134.4L413.679 135.504C413.444 135.707 413.162 135.856 412.831 135.952C412.511 136.048 412.175 136.096 411.823 136.096ZM407.695 128.784V127.52H413.103V128.784H407.695ZM418.887 136.096C418.033 136.096 417.276 135.909 416.615 135.536C415.953 135.163 415.431 134.651 415.047 134C414.663 133.339 414.471 132.592 414.471 131.76C414.471 130.917 414.663 130.171 415.047 129.52C415.431 128.869 415.953 128.363 416.615 128C417.276 127.627 418.033 127.44 418.887 127.44C419.729 127.44 420.481 127.627 421.143 128C421.815 128.363 422.337 128.869 422.711 129.52C423.095 130.16 423.287 130.907 423.287 131.76C423.287 132.603 423.095 133.349 422.711 134C422.337 134.651 421.815 135.163 421.143 135.536C420.481 135.909 419.729 136.096 418.887 136.096ZM418.887 134.752C419.431 134.752 419.916 134.629 420.343 134.384C420.78 134.139 421.121 133.792 421.367 133.344C421.612 132.885 421.735 132.357 421.735 131.76C421.735 131.152 421.612 130.629 421.367 130.192C421.121 129.744 420.78 129.397 420.343 129.152C419.916 128.907 419.431 128.784 418.887 128.784C418.343 128.784 417.857 128.907 417.431 129.152C417.004 129.397 416.663 129.744 416.407 130.192C416.151 130.629 416.023 131.152 416.023 131.76C416.023 132.357 416.151 132.885 416.407 133.344C416.663 133.792 417.004 134.139 417.431 134.384C417.857 134.629 418.343 134.752 418.887 134.752ZM431.5 136L428.348 127.52H429.804L432.604 135.2H431.916L434.828 127.52H436.124L438.972 135.2H438.3L441.164 127.52H442.54L439.372 136H437.9L435.228 128.992H435.676L432.972 136H431.5ZM444.099 136V127.52H445.635V136H444.099ZM444.867 125.888C444.568 125.888 444.317 125.792 444.115 125.6C443.923 125.408 443.827 125.173 443.827 124.896C443.827 124.608 443.923 124.368 444.115 124.176C444.317 123.984 444.568 123.888 444.867 123.888C445.165 123.888 445.411 123.984 445.603 124.176C445.805 124.357 445.907 124.587 445.907 124.864C445.907 125.152 445.811 125.397 445.619 125.6C445.427 125.792 445.176 125.888 444.867 125.888ZM451.479 136.096C450.626 136.096 449.965 135.867 449.495 135.408C449.026 134.949 448.791 134.293 448.791 133.44V125.664H450.327V133.376C450.327 133.835 450.439 134.187 450.663 134.432C450.898 134.677 451.229 134.8 451.655 134.8C452.135 134.8 452.535 134.667 452.855 134.4L453.335 135.504C453.101 135.707 452.818 135.856 452.487 135.952C452.167 136.048 451.831 136.096 451.479 136.096ZM447.351 128.784V127.52H452.759V128.784H447.351ZM459.72 127.44C460.414 127.44 461.022 127.573 461.544 127.84C462.078 128.107 462.494 128.512 462.792 129.056C463.091 129.6 463.24 130.288 463.24 131.12V136H461.704V131.296C461.704 130.475 461.502 129.856 461.096 129.44C460.702 129.024 460.142 128.816 459.416 128.816C458.872 128.816 458.398 128.923 457.992 129.136C457.587 129.349 457.272 129.664 457.048 130.08C456.835 130.496 456.728 131.013 456.728 131.632V136H455.192V127.52H456.664V129.808L456.424 129.2C456.702 128.645 457.128 128.213 457.704 127.904C458.28 127.595 458.952 127.44 459.72 127.44ZM469.859 136.096C468.952 136.096 468.152 135.909 467.459 135.536C466.776 135.163 466.243 134.651 465.859 134C465.486 133.349 465.299 132.603 465.299 131.76C465.299 130.917 465.48 130.171 465.843 129.52C466.216 128.869 466.723 128.363 467.363 128C468.014 127.627 468.744 127.44 469.555 127.44C470.376 127.44 471.102 127.621 471.731 127.984C472.36 128.347 472.851 128.859 473.203 129.52C473.566 130.171 473.747 130.933 473.747 131.808C473.747 131.872 473.742 131.947 473.731 132.032C473.731 132.117 473.726 132.197 473.715 132.272H466.499V131.168H472.915L472.291 131.552C472.302 131.008 472.19 130.523 471.955 130.096C471.72 129.669 471.395 129.339 470.979 129.104C470.574 128.859 470.099 128.736 469.555 128.736C469.022 128.736 468.547 128.859 468.131 129.104C467.715 129.339 467.39 129.675 467.155 130.112C466.92 130.539 466.803 131.029 466.803 131.584V131.84C466.803 132.405 466.931 132.912 467.187 133.36C467.454 133.797 467.822 134.139 468.291 134.384C468.76 134.629 469.299 134.752 469.907 134.752C470.408 134.752 470.862 134.667 471.267 134.496C471.683 134.325 472.046 134.069 472.355 133.728L473.203 134.72C472.819 135.168 472.339 135.509 471.763 135.744C471.198 135.979 470.563 136.096 469.859 136.096ZM478.312 136.096C477.608 136.096 476.936 136 476.296 135.808C475.666 135.616 475.17 135.381 474.808 135.104L475.448 133.888C475.81 134.133 476.258 134.341 476.792 134.512C477.325 134.683 477.869 134.768 478.424 134.768C479.138 134.768 479.65 134.667 479.96 134.464C480.28 134.261 480.44 133.979 480.44 133.616C480.44 133.349 480.344 133.141 480.152 132.992C479.96 132.843 479.704 132.731 479.384 132.656C479.074 132.581 478.728 132.517 478.344 132.464C477.96 132.4 477.576 132.325 477.192 132.24C476.808 132.144 476.456 132.016 476.136 131.856C475.816 131.685 475.56 131.456 475.368 131.168C475.176 130.869 475.08 130.475 475.08 129.984C475.08 129.472 475.224 129.024 475.512 128.64C475.8 128.256 476.205 127.963 476.728 127.76C477.261 127.547 477.89 127.44 478.616 127.44C479.17 127.44 479.73 127.509 480.296 127.648C480.872 127.776 481.341 127.963 481.704 128.208L481.048 129.424C480.664 129.168 480.264 128.992 479.848 128.896C479.432 128.8 479.016 128.752 478.6 128.752C477.928 128.752 477.426 128.864 477.096 129.088C476.765 129.301 476.6 129.579 476.6 129.92C476.6 130.208 476.696 130.432 476.888 130.592C477.09 130.741 477.346 130.859 477.656 130.944C477.976 131.029 478.328 131.104 478.712 131.168C479.096 131.221 479.48 131.296 479.864 131.392C480.248 131.477 480.594 131.6 480.904 131.76C481.224 131.92 481.48 132.144 481.672 132.432C481.874 132.72 481.976 133.104 481.976 133.584C481.976 134.096 481.826 134.539 481.528 134.912C481.229 135.285 480.808 135.579 480.264 135.792C479.72 135.995 479.069 136.096 478.312 136.096ZM486.327 136.096C485.623 136.096 484.951 136 484.311 135.808C483.682 135.616 483.186 135.381 482.823 135.104L483.463 133.888C483.826 134.133 484.274 134.341 484.807 134.512C485.341 134.683 485.885 134.768 486.439 134.768C487.154 134.768 487.666 134.667 487.975 134.464C488.295 134.261 488.455 133.979 488.455 133.616C488.455 133.349 488.359 133.141 488.167 132.992C487.975 132.843 487.719 132.731 487.399 132.656C487.09 132.581 486.743 132.517 486.359 132.464C485.975 132.4 485.591 132.325 485.207 132.24C484.823 132.144 484.471 132.016 484.151 131.856C483.831 131.685 483.575 131.456 483.383 131.168C483.191 130.869 483.095 130.475 483.095 129.984C483.095 129.472 483.239 129.024 483.527 128.64C483.815 128.256 484.221 127.963 484.743 127.76C485.277 127.547 485.906 127.44 486.631 127.44C487.186 127.44 487.746 127.509 488.311 127.648C488.887 127.776 489.357 127.963 489.719 128.208L489.063 129.424C488.679 129.168 488.279 128.992 487.863 128.896C487.447 128.8 487.031 128.752 486.615 128.752C485.943 128.752 485.442 128.864 485.111 129.088C484.781 129.301 484.615 129.579 484.615 129.92C484.615 130.208 484.711 130.432 484.903 130.592C485.106 130.741 485.362 130.859 485.671 130.944C485.991 131.029 486.343 131.104 486.727 131.168C487.111 131.221 487.495 131.296 487.879 131.392C488.263 131.477 488.61 131.6 488.919 131.76C489.239 131.92 489.495 132.144 489.687 132.432C489.89 132.72 489.991 133.104 489.991 133.584C489.991 134.096 489.842 134.539 489.543 134.912C489.245 135.285 488.823 135.579 488.279 135.792C487.735 135.995 487.085 136.096 486.327 136.096ZM499.12 136.096C498.267 136.096 497.605 135.867 497.136 135.408C496.667 134.949 496.432 134.293 496.432 133.44V125.664H497.968V133.376C497.968 133.835 498.08 134.187 498.304 134.432C498.539 134.677 498.869 134.8 499.296 134.8C499.776 134.8 500.176 134.667 500.496 134.4L500.976 135.504C500.741 135.707 500.459 135.856 500.128 135.952C499.808 136.048 499.472 136.096 499.12 136.096ZM494.992 128.784V127.52H500.4V128.784H494.992ZM507.361 127.44C508.054 127.44 508.662 127.573 509.185 127.84C509.718 128.107 510.134 128.512 510.433 129.056C510.732 129.6 510.881 130.288 510.881 131.12V136H509.345V131.296C509.345 130.475 509.142 129.856 508.737 129.44C508.342 129.024 507.782 128.816 507.057 128.816C506.513 128.816 506.038 128.923 505.633 129.136C505.228 129.349 504.913 129.664 504.689 130.08C504.476 130.496 504.369 131.013 504.369 131.632V136H502.833V124.128H504.369V129.808L504.065 129.2C504.342 128.645 504.769 128.213 505.345 127.904C505.921 127.595 506.593 127.44 507.361 127.44ZM517.5 136.096C516.593 136.096 515.793 135.909 515.1 135.536C514.417 135.163 513.884 134.651 513.5 134C513.126 133.349 512.94 132.603 512.94 131.76C512.94 130.917 513.121 130.171 513.484 129.52C513.857 128.869 514.364 128.363 515.004 128C515.654 127.627 516.385 127.44 517.196 127.44C518.017 127.44 518.742 127.621 519.372 127.984C520.001 128.347 520.492 128.859 520.844 129.52C521.206 130.171 521.388 130.933 521.388 131.808C521.388 131.872 521.382 131.947 521.372 132.032C521.372 132.117 521.366 132.197 521.356 132.272H514.14V131.168H520.556L519.932 131.552C519.942 131.008 519.83 130.523 519.596 130.096C519.361 129.669 519.036 129.339 518.62 129.104C518.214 128.859 517.74 128.736 517.196 128.736C516.662 128.736 516.188 128.859 515.772 129.104C515.356 129.339 515.03 129.675 514.796 130.112C514.561 130.539 514.444 131.029 514.444 131.584V131.84C514.444 132.405 514.572 132.912 514.828 133.36C515.094 133.797 515.462 134.139 515.932 134.384C516.401 134.629 516.94 134.752 517.548 134.752C518.049 134.752 518.502 134.667 518.908 134.496C519.324 134.325 519.686 134.069 519.996 133.728L520.844 134.72C520.46 135.168 519.98 135.509 519.404 135.744C518.838 135.979 518.204 136.096 517.5 136.096ZM538.425 127.44C539.108 127.44 539.711 127.573 540.233 127.84C540.756 128.107 541.161 128.512 541.449 129.056C541.748 129.6 541.897 130.288 541.897 131.12V136H540.361V131.296C540.361 130.475 540.169 129.856 539.785 129.44C539.401 129.024 538.863 128.816 538.169 128.816C537.657 128.816 537.209 128.923 536.825 129.136C536.441 129.349 536.143 129.664 535.929 130.08C535.727 130.496 535.625 131.013 535.625 131.632V136H534.089V131.296C534.089 130.475 533.897 129.856 533.513 129.44C533.14 129.024 532.601 128.816 531.897 128.816C531.396 128.816 530.953 128.923 530.569 129.136C530.185 129.349 529.887 129.664 529.673 130.08C529.46 130.496 529.353 131.013 529.353 131.632V136H527.817V127.52H529.289V129.776L529.049 129.2C529.316 128.645 529.727 128.213 530.281 127.904C530.836 127.595 531.481 127.44 532.217 127.44C533.028 127.44 533.727 127.643 534.313 128.048C534.9 128.443 535.284 129.045 535.465 129.856L534.841 129.6C535.097 128.949 535.545 128.427 536.185 128.032C536.825 127.637 537.572 127.44 538.425 127.44ZM549.988 136V134.208L549.908 133.872V130.816C549.908 130.165 549.716 129.664 549.332 129.312C548.958 128.949 548.393 128.768 547.636 128.768C547.134 128.768 546.644 128.853 546.164 129.024C545.684 129.184 545.278 129.403 544.948 129.68L544.308 128.528C544.745 128.176 545.268 127.909 545.876 127.728C546.494 127.536 547.14 127.44 547.812 127.44C548.974 127.44 549.87 127.723 550.5 128.288C551.129 128.853 551.444 129.717 551.444 130.88V136H549.988ZM547.204 136.096C546.574 136.096 546.02 135.989 545.54 135.776C545.07 135.563 544.708 135.269 544.452 134.896C544.196 134.512 544.068 134.08 544.068 133.6C544.068 133.141 544.174 132.725 544.388 132.352C544.612 131.979 544.969 131.68 545.46 131.456C545.961 131.232 546.633 131.12 547.476 131.12H550.164V132.224H547.54C546.772 132.224 546.254 132.352 545.988 132.608C545.721 132.864 545.588 133.173 545.588 133.536C545.588 133.952 545.753 134.288 546.084 134.544C546.414 134.789 546.873 134.912 547.46 134.912C548.036 134.912 548.537 134.784 548.964 134.528C549.401 134.272 549.716 133.899 549.908 133.408L550.212 134.464C550.009 134.965 549.652 135.365 549.14 135.664C548.628 135.952 547.982 136.096 547.204 136.096ZM557.998 139.2C557.219 139.2 556.462 139.088 555.726 138.864C555.001 138.651 554.409 138.341 553.95 137.936L554.686 136.752C555.081 137.093 555.566 137.36 556.142 137.552C556.718 137.755 557.321 137.856 557.95 137.856C558.953 137.856 559.689 137.621 560.158 137.152C560.627 136.683 560.862 135.968 560.862 135.008V133.216L561.022 131.536L560.942 129.84V127.52H562.398V134.848C562.398 136.341 562.025 137.44 561.278 138.144C560.531 138.848 559.438 139.2 557.998 139.2ZM557.806 135.648C556.985 135.648 556.249 135.477 555.598 135.136C554.958 134.784 554.446 134.299 554.062 133.68C553.689 133.061 553.502 132.347 553.502 131.536C553.502 130.715 553.689 130 554.062 129.392C554.446 128.773 554.958 128.293 555.598 127.952C556.249 127.611 556.985 127.44 557.806 127.44C558.531 127.44 559.193 127.589 559.79 127.888C560.387 128.176 560.862 128.624 561.214 129.232C561.577 129.84 561.758 130.608 561.758 131.536C561.758 132.453 561.577 133.216 561.214 133.824C560.862 134.432 560.387 134.891 559.79 135.2C559.193 135.499 558.531 135.648 557.806 135.648ZM557.982 134.304C558.547 134.304 559.049 134.187 559.486 133.952C559.923 133.717 560.265 133.392 560.51 132.976C560.766 132.56 560.894 132.08 560.894 131.536C560.894 130.992 560.766 130.512 560.51 130.096C560.265 129.68 559.923 129.36 559.486 129.136C559.049 128.901 558.547 128.784 557.982 128.784C557.417 128.784 556.91 128.901 556.462 129.136C556.025 129.36 555.678 129.68 555.422 130.096C555.177 130.512 555.054 130.992 555.054 131.536C555.054 132.08 555.177 132.56 555.422 132.976C555.678 133.392 556.025 133.717 556.462 133.952C556.91 134.187 557.417 134.304 557.982 134.304ZM565.333 136V127.52H566.869V136H565.333ZM566.101 125.888C565.802 125.888 565.552 125.792 565.349 125.6C565.157 125.408 565.061 125.173 565.061 124.896C565.061 124.608 565.157 124.368 565.349 124.176C565.552 123.984 565.802 123.888 566.101 123.888C566.4 123.888 566.645 123.984 566.837 124.176C567.04 124.357 567.141 124.587 567.141 124.864C567.141 125.152 567.045 125.397 566.853 125.6C566.661 125.792 566.41 125.888 566.101 125.888ZM573.498 136.096C572.634 136.096 571.86 135.909 571.178 135.536C570.506 135.163 569.978 134.651 569.594 134C569.21 133.349 569.018 132.603 569.018 131.76C569.018 130.917 569.21 130.171 569.594 129.52C569.978 128.869 570.506 128.363 571.178 128C571.86 127.627 572.634 127.44 573.498 127.44C574.266 127.44 574.948 127.595 575.546 127.904C576.154 128.203 576.623 128.651 576.954 129.248L575.786 130C575.508 129.584 575.167 129.28 574.762 129.088C574.367 128.885 573.94 128.784 573.482 128.784C572.927 128.784 572.431 128.907 571.994 129.152C571.556 129.397 571.21 129.744 570.954 130.192C570.698 130.629 570.57 131.152 570.57 131.76C570.57 132.368 570.698 132.896 570.954 133.344C571.21 133.792 571.556 134.139 571.994 134.384C572.431 134.629 572.927 134.752 573.482 134.752C573.94 134.752 574.367 134.656 574.762 134.464C575.167 134.261 575.508 133.952 575.786 133.536L576.954 134.272C576.623 134.859 576.154 135.312 575.546 135.632C574.948 135.941 574.266 136.096 573.498 136.096ZM579.623 136.096C579.324 136.096 579.068 135.995 578.855 135.792C578.641 135.579 578.535 135.312 578.535 134.992C578.535 134.672 578.641 134.411 578.855 134.208C579.068 134.005 579.324 133.904 579.623 133.904C579.911 133.904 580.156 134.005 580.359 134.208C580.572 134.411 580.679 134.672 580.679 134.992C580.679 135.312 580.572 135.579 580.359 135.792C580.156 135.995 579.911 136.096 579.623 136.096Z" fill="white"/>
</svg>
